<?xml version="1.0" encoding="UTF-8"?>
<svg xmlns="http://www.w3.org/2000/svg" xmlns:xlink="http://www.w3.org/1999/xlink" width="396pt" height="252pt" viewBox="0 0 396 252">
<defs>
<g>
<g id="glyph-0-0">
<path d="M 0.28125 0 L 0.28125 -6.3125 L 5.296875 -6.3125 L 5.296875 0 Z M 4.5 -0.796875 L 4.5 -5.515625 L 1.078125 -5.515625 L 1.078125 -0.796875 Z M 4.5 -0.796875 "/>
</g>
<g id="glyph-0-1">
<path d="M 2.375 -6.15625 C 3.175781 -6.15625 3.753906 -5.828125 4.109375 -5.171875 C 4.378906 -4.660156 4.515625 -3.960938 4.515625 -3.078125 C 4.515625 -2.242188 4.390625 -1.554688 4.140625 -1.015625 C 3.785156 -0.222656 3.195312 0.171875 2.375 0.171875 C 1.632812 0.171875 1.082031 -0.148438 0.71875 -0.796875 C 0.425781 -1.328125 0.28125 -2.046875 0.28125 -2.953125 C 0.28125 -3.648438 0.367188 -4.25 0.546875 -4.75 C 0.878906 -5.6875 1.488281 -6.15625 2.375 -6.15625 Z M 2.375 -0.53125 C 2.769531 -0.53125 3.085938 -0.707031 3.328125 -1.0625 C 3.566406 -1.425781 3.6875 -2.085938 3.6875 -3.046875 C 3.6875 -3.753906 3.597656 -4.332031 3.421875 -4.78125 C 3.253906 -5.226562 2.921875 -5.453125 2.421875 -5.453125 C 1.972656 -5.453125 1.640625 -5.238281 1.421875 -4.8125 C 1.210938 -4.382812 1.109375 -3.753906 1.109375 -2.921875 C 1.109375 -2.296875 1.175781 -1.789062 1.3125 -1.40625 C 1.519531 -0.820312 1.875 -0.53125 2.375 -0.53125 Z M 2.375 -0.53125 "/>
</g>
<g id="glyph-0-2">
<path d="M 0.75 -0.9375 L 1.65625 -0.9375 L 1.65625 0 L 0.75 0 Z M 0.75 -0.9375 "/>
</g>
<g id="glyph-0-3">
<path d="M 0.84375 -4.359375 L 0.84375 -4.953125 C 1.394531 -5.003906 1.78125 -5.09375 2 -5.21875 C 2.226562 -5.34375 2.394531 -5.644531 2.5 -6.125 L 3.109375 -6.125 L 3.109375 0 L 2.296875 0 L 2.296875 -4.359375 Z M 0.84375 -4.359375 "/>
</g>
<g id="glyph-0-4">
<path d="M 0.28125 0 C 0.300781 -0.53125 0.40625 -0.988281 0.59375 -1.375 C 0.789062 -1.769531 1.164062 -2.128906 1.71875 -2.453125 L 2.546875 -2.921875 C 2.910156 -3.140625 3.164062 -3.328125 3.3125 -3.484375 C 3.550781 -3.710938 3.671875 -3.984375 3.671875 -4.296875 C 3.671875 -4.648438 3.5625 -4.929688 3.34375 -5.140625 C 3.132812 -5.359375 2.847656 -5.46875 2.484375 -5.46875 C 1.960938 -5.46875 1.597656 -5.265625 1.390625 -4.859375 C 1.285156 -4.648438 1.226562 -4.351562 1.21875 -3.96875 L 0.421875 -3.96875 C 0.429688 -4.5 0.53125 -4.9375 0.71875 -5.28125 C 1.050781 -5.875 1.644531 -6.171875 2.5 -6.171875 C 3.195312 -6.171875 3.707031 -5.976562 4.03125 -5.59375 C 4.363281 -5.21875 4.53125 -4.796875 4.53125 -4.328125 C 4.53125 -3.835938 4.351562 -3.414062 4 -3.0625 C 3.800781 -2.863281 3.441406 -2.617188 2.921875 -2.328125 L 2.34375 -2 C 2.0625 -1.84375 1.835938 -1.695312 1.671875 -1.5625 C 1.390625 -1.3125 1.210938 -1.035156 1.140625 -0.734375 L 4.5 -0.734375 L 4.5 0 Z M 0.28125 0 "/>
</g>
<g id="glyph-0-5">
<path d="M 2.28125 0.171875 C 1.550781 0.171875 1.019531 -0.0234375 0.6875 -0.421875 C 0.363281 -0.828125 0.203125 -1.316406 0.203125 -1.890625 L 1.015625 -1.890625 C 1.046875 -1.492188 1.117188 -1.203125 1.234375 -1.015625 C 1.441406 -0.691406 1.804688 -0.53125 2.328125 -0.53125 C 2.734375 -0.53125 3.054688 -0.640625 3.296875 -0.859375 C 3.546875 -1.078125 3.671875 -1.359375 3.671875 -1.703125 C 3.671875 -2.128906 3.539062 -2.425781 3.28125 -2.59375 C 3.03125 -2.757812 2.671875 -2.84375 2.203125 -2.84375 C 2.148438 -2.84375 2.097656 -2.84375 2.046875 -2.84375 C 1.992188 -2.84375 1.941406 -2.84375 1.890625 -2.84375 L 1.890625 -3.515625 C 1.972656 -3.515625 2.039062 -3.507812 2.09375 -3.5 C 2.144531 -3.5 2.203125 -3.5 2.265625 -3.5 C 2.554688 -3.5 2.796875 -3.546875 2.984375 -3.640625 C 3.304688 -3.796875 3.46875 -4.082031 3.46875 -4.5 C 3.46875 -4.800781 3.359375 -5.035156 3.140625 -5.203125 C 2.921875 -5.367188 2.671875 -5.453125 2.390625 -5.453125 C 1.867188 -5.453125 1.507812 -5.28125 1.3125 -4.9375 C 1.207031 -4.75 1.144531 -4.476562 1.125 -4.125 L 0.359375 -4.125 C 0.359375 -4.582031 0.453125 -4.972656 0.640625 -5.296875 C 0.953125 -5.867188 1.503906 -6.15625 2.296875 -6.15625 C 2.929688 -6.15625 3.421875 -6.015625 3.765625 -5.734375 C 4.109375 -5.460938 4.28125 -5.0625 4.28125 -4.53125 C 4.28125 -4.144531 4.175781 -3.835938 3.96875 -3.609375 C 3.84375 -3.460938 3.679688 -3.347656 3.484375 -3.265625 C 3.804688 -3.171875 4.054688 -3 4.234375 -2.75 C 4.421875 -2.5 4.515625 -2.191406 4.515625 -1.828125 C 4.515625 -1.234375 4.316406 -0.75 3.921875 -0.375 C 3.535156 -0.0078125 2.988281 0.171875 2.28125 0.171875 Z M 2.28125 0.171875 "/>
</g>
<g id="glyph-0-6">
<path d="M 1.09375 -1.5625 C 1.132812 -1.125 1.335938 -0.820312 1.703125 -0.65625 C 1.878906 -0.570312 2.09375 -0.53125 2.34375 -0.53125 C 2.800781 -0.53125 3.140625 -0.675781 3.359375 -0.96875 C 3.578125 -1.257812 3.6875 -1.582031 3.6875 -1.9375 C 3.6875 -2.363281 3.554688 -2.691406 3.296875 -2.921875 C 3.035156 -3.160156 2.71875 -3.28125 2.34375 -3.28125 C 2.082031 -3.28125 1.851562 -3.226562 1.65625 -3.125 C 1.46875 -3.019531 1.304688 -2.878906 1.171875 -2.703125 L 0.5 -2.734375 L 0.96875 -6.046875 L 4.171875 -6.046875 L 4.171875 -5.296875 L 1.5625 -5.296875 L 1.296875 -3.59375 C 1.429688 -3.695312 1.566406 -3.773438 1.703125 -3.828125 C 1.929688 -3.929688 2.195312 -3.984375 2.5 -3.984375 C 3.0625 -3.984375 3.535156 -3.800781 3.921875 -3.4375 C 4.316406 -3.070312 4.515625 -2.609375 4.515625 -2.046875 C 4.515625 -1.460938 4.332031 -0.945312 3.96875 -0.5 C 3.613281 -0.0625 3.046875 0.15625 2.265625 0.15625 C 1.753906 0.15625 1.304688 0.0117188 0.921875 -0.265625 C 0.546875 -0.546875 0.332031 -0.976562 0.28125 -1.5625 Z M 1.09375 -1.5625 "/>
</g>
<g id="glyph-0-7">
<path d="M 0.75 -6.3125 L 5.125 -6.3125 L 5.125 -5.53125 L 1.609375 -5.53125 L 1.609375 -3.625 L 4.703125 -3.625 L 4.703125 -2.875 L 1.609375 -2.875 L 1.609375 0 L 0.75 0 Z M 0.75 -6.3125 "/>
</g>
<g id="glyph-0-8">
<path d="M 3.609375 -3.421875 C 4.003906 -3.421875 4.316406 -3.5 4.546875 -3.65625 C 4.785156 -3.820312 4.90625 -4.113281 4.90625 -4.53125 C 4.90625 -4.976562 4.742188 -5.285156 4.421875 -5.453125 C 4.242188 -5.535156 4.007812 -5.578125 3.71875 -5.578125 L 1.625 -5.578125 L 1.625 -3.421875 Z M 0.765625 -6.3125 L 3.6875 -6.3125 C 4.175781 -6.3125 4.578125 -6.238281 4.890625 -6.09375 C 5.472656 -5.832031 5.765625 -5.335938 5.765625 -4.609375 C 5.765625 -4.234375 5.6875 -3.921875 5.53125 -3.671875 C 5.382812 -3.429688 5.171875 -3.238281 4.890625 -3.09375 C 5.128906 -3 5.3125 -2.867188 5.4375 -2.703125 C 5.5625 -2.546875 5.628906 -2.28125 5.640625 -1.90625 L 5.671875 -1.0625 C 5.679688 -0.820312 5.703125 -0.644531 5.734375 -0.53125 C 5.785156 -0.332031 5.878906 -0.203125 6.015625 -0.140625 L 6.015625 0 L 4.96875 0 C 4.9375 -0.0507812 4.910156 -0.117188 4.890625 -0.203125 C 4.878906 -0.296875 4.867188 -0.460938 4.859375 -0.703125 L 4.796875 -1.765625 C 4.773438 -2.171875 4.625 -2.445312 4.34375 -2.59375 C 4.175781 -2.664062 3.921875 -2.703125 3.578125 -2.703125 L 1.625 -2.703125 L 1.625 0 L 0.765625 0 Z M 0.765625 -6.3125 "/>
</g>
<g id="glyph-0-9">
<path d="M 3.046875 -3.640625 C 3.398438 -3.640625 3.679688 -3.691406 3.890625 -3.796875 C 4.203125 -3.953125 4.359375 -4.234375 4.359375 -4.640625 C 4.359375 -5.054688 4.191406 -5.335938 3.859375 -5.484375 C 3.660156 -5.554688 3.378906 -5.59375 3.015625 -5.59375 L 1.484375 -5.59375 L 1.484375 -3.640625 Z M 3.328125 -0.734375 C 3.847656 -0.734375 4.222656 -0.882812 4.453125 -1.1875 C 4.585938 -1.375 4.65625 -1.601562 4.65625 -1.875 C 4.65625 -2.332031 4.453125 -2.644531 4.046875 -2.8125 C 3.828125 -2.90625 3.539062 -2.953125 3.1875 -2.953125 L 1.484375 -2.953125 L 1.484375 -0.734375 Z M 0.65625 -6.3125 L 3.359375 -6.3125 C 4.097656 -6.3125 4.625 -6.085938 4.9375 -5.640625 C 5.113281 -5.378906 5.203125 -5.082031 5.203125 -4.75 C 5.203125 -4.351562 5.09375 -4.023438 4.875 -3.765625 C 4.75 -3.628906 4.578125 -3.503906 4.359375 -3.390625 C 4.679688 -3.273438 4.925781 -3.140625 5.09375 -2.984375 C 5.375 -2.703125 5.515625 -2.320312 5.515625 -1.84375 C 5.515625 -1.4375 5.390625 -1.066406 5.140625 -0.734375 C 4.753906 -0.242188 4.144531 0 3.3125 0 L 0.65625 0 Z M 0.65625 -6.3125 "/>
</g>
<g id="glyph-0-10">
<path d="M 3.328125 -6.484375 C 4.128906 -6.484375 4.75 -6.269531 5.1875 -5.84375 C 5.625 -5.425781 5.867188 -4.953125 5.921875 -4.421875 L 5.09375 -4.421875 C 5 -4.828125 4.8125 -5.144531 4.53125 -5.375 C 4.25 -5.613281 3.851562 -5.734375 3.34375 -5.734375 C 2.71875 -5.734375 2.210938 -5.515625 1.828125 -5.078125 C 1.453125 -4.640625 1.265625 -3.972656 1.265625 -3.078125 C 1.265625 -2.335938 1.4375 -1.738281 1.78125 -1.28125 C 2.125 -0.820312 2.632812 -0.59375 3.3125 -0.59375 C 3.945312 -0.59375 4.429688 -0.832031 4.765625 -1.3125 C 4.929688 -1.570312 5.0625 -1.90625 5.15625 -2.3125 L 5.984375 -2.3125 C 5.910156 -1.65625 5.664062 -1.101562 5.25 -0.65625 C 4.75 -0.113281 4.070312 0.15625 3.21875 0.15625 C 2.488281 0.15625 1.875 -0.0625 1.375 -0.5 C 0.71875 -1.09375 0.390625 -2 0.390625 -3.21875 C 0.390625 -4.15625 0.632812 -4.921875 1.125 -5.515625 C 1.65625 -6.160156 2.390625 -6.484375 3.328125 -6.484375 Z M 3.15625 -6.484375 Z M 3.15625 -6.484375 "/>
</g>
<g id="glyph-0-11">
<path d="M 3.09375 -0.734375 C 3.382812 -0.734375 3.625 -0.765625 3.8125 -0.828125 C 4.132812 -0.929688 4.40625 -1.144531 4.625 -1.46875 C 4.789062 -1.71875 4.910156 -2.039062 4.984375 -2.4375 C 5.023438 -2.675781 5.046875 -2.898438 5.046875 -3.109375 C 5.046875 -3.890625 4.890625 -4.492188 4.578125 -4.921875 C 4.273438 -5.359375 3.773438 -5.578125 3.078125 -5.578125 L 1.5625 -5.578125 L 1.5625 -0.734375 Z M 0.703125 -6.3125 L 3.265625 -6.3125 C 4.128906 -6.3125 4.800781 -6.003906 5.28125 -5.390625 C 5.707031 -4.828125 5.921875 -4.113281 5.921875 -3.25 C 5.921875 -2.582031 5.796875 -1.976562 5.546875 -1.4375 C 5.097656 -0.476562 4.332031 0 3.25 0 L 0.703125 0 Z M 0.703125 -6.3125 "/>
</g>
<g id="glyph-0-12">
<path d="M 0.75 -6.3125 L 5.359375 -6.3125 L 5.359375 -5.53125 L 1.578125 -5.53125 L 1.578125 -3.625 L 5.0625 -3.625 L 5.0625 -2.890625 L 1.578125 -2.890625 L 1.578125 -0.75 L 5.421875 -0.75 L 5.421875 0 L 0.75 0 Z M 3.078125 -6.3125 Z M 3.078125 -6.3125 "/>
</g>
<g id="glyph-0-13">
<path d="M 3.390625 -6.46875 C 3.984375 -6.46875 4.5 -6.351562 4.9375 -6.125 C 5.5625 -5.800781 5.945312 -5.226562 6.09375 -4.40625 L 5.234375 -4.40625 C 5.128906 -4.863281 4.914062 -5.195312 4.59375 -5.40625 C 4.269531 -5.613281 3.863281 -5.71875 3.375 -5.71875 C 2.789062 -5.71875 2.296875 -5.5 1.890625 -5.0625 C 1.492188 -4.625 1.296875 -3.972656 1.296875 -3.109375 C 1.296875 -2.359375 1.460938 -1.742188 1.796875 -1.265625 C 2.128906 -0.796875 2.664062 -0.5625 3.40625 -0.5625 C 3.976562 -0.5625 4.445312 -0.726562 4.8125 -1.0625 C 5.1875 -1.394531 5.378906 -1.929688 5.390625 -2.671875 L 3.421875 -2.671875 L 3.421875 -3.375 L 6.1875 -3.375 L 6.1875 0 L 5.640625 0 L 5.4375 -0.8125 C 5.144531 -0.488281 4.890625 -0.269531 4.671875 -0.15625 C 4.296875 0.0585938 3.816406 0.171875 3.234375 0.171875 C 2.484375 0.171875 1.84375 -0.0703125 1.3125 -0.5625 C 0.71875 -1.164062 0.421875 -2 0.421875 -3.0625 C 0.421875 -4.113281 0.707031 -4.953125 1.28125 -5.578125 C 1.820312 -6.171875 2.523438 -6.46875 3.390625 -6.46875 Z M 3.25 -6.484375 Z M 3.25 -6.484375 "/>
</g>
<g id="glyph-0-14">
<path d="M 0.6875 -6.3125 L 1.5625 -6.3125 L 1.5625 -3.703125 L 4.84375 -3.703125 L 4.84375 -6.3125 L 5.703125 -6.3125 L 5.703125 0 L 4.84375 0 L 4.84375 -2.953125 L 1.5625 -2.953125 L 1.5625 0 L 0.6875 0 Z M 0.6875 -6.3125 "/>
</g>
<g id="glyph-0-15">
<path d="M 0.859375 -6.3125 L 1.734375 -6.3125 L 1.734375 0 L 0.859375 0 Z M 0.859375 -6.3125 "/>
</g>
<g id="glyph-0-16">
<path d="M 3.765625 -1.875 C 3.765625 -1.34375 3.6875 -0.929688 3.53125 -0.640625 C 3.238281 -0.0976562 2.679688 0.171875 1.859375 0.171875 C 1.390625 0.171875 0.988281 0.0429688 0.65625 -0.203125 C 0.320312 -0.460938 0.15625 -0.921875 0.15625 -1.578125 L 0.15625 -2.03125 L 0.953125 -2.03125 L 0.953125 -1.578125 C 0.953125 -1.234375 1.023438 -0.972656 1.171875 -0.796875 C 1.328125 -0.628906 1.570312 -0.546875 1.90625 -0.546875 C 2.351562 -0.546875 2.648438 -0.703125 2.796875 -1.015625 C 2.878906 -1.210938 2.921875 -1.578125 2.921875 -2.109375 L 2.921875 -6.3125 L 3.765625 -6.3125 Z M 3.765625 -1.875 "/>
</g>
<g id="glyph-0-17">
<path d="M 0.671875 -6.3125 L 1.5 -6.3125 L 1.5 -3.234375 L 4.578125 -6.3125 L 5.765625 -6.3125 L 3.140625 -3.765625 L 5.828125 0 L 4.71875 0 L 2.515625 -3.171875 L 1.5 -2.203125 L 1.5 0 L 0.671875 0 Z M 0.671875 -6.3125 "/>
</g>
<g id="glyph-0-18">
<path d="M 0.671875 -6.3125 L 1.53125 -6.3125 L 1.53125 -0.75 L 4.71875 -0.75 L 4.71875 0 L 0.671875 0 Z M 0.671875 -6.3125 "/>
</g>
<g id="glyph-0-19">
<path d="M 0.65625 -6.3125 L 1.875 -6.3125 L 3.6875 -0.96875 L 5.484375 -6.3125 L 6.703125 -6.3125 L 6.703125 0 L 5.890625 0 L 5.890625 -3.71875 C 5.890625 -3.851562 5.890625 -4.066406 5.890625 -4.359375 C 5.898438 -4.660156 5.90625 -4.984375 5.90625 -5.328125 L 4.109375 0 L 3.25 0 L 1.4375 -5.328125 L 1.4375 -5.125 C 1.4375 -4.96875 1.441406 -4.734375 1.453125 -4.421875 C 1.460938 -4.109375 1.46875 -3.875 1.46875 -3.71875 L 1.46875 0 L 0.65625 0 Z M 0.65625 -6.3125 "/>
</g>
<g id="glyph-0-20">
<path d="M 0.1875 -6.3125 L 1.171875 -6.3125 L 2.984375 -3.28125 L 4.796875 -6.3125 L 5.796875 -6.3125 L 3.421875 -2.546875 L 3.421875 0 L 2.5625 0 L 2.5625 -2.546875 Z M 3 -6.3125 Z M 3 -6.3125 "/>
</g>
<g id="glyph-1-0">
<path d="M 0.359375 0 L 0.359375 -7.890625 L 6.625 -7.890625 L 6.625 0 Z M 5.625 -0.984375 L 5.625 -6.90625 L 1.34375 -6.90625 L 1.34375 -0.984375 Z M 5.625 -0.984375 "/>
</g>
<g id="glyph-1-1">
<path d="M 4.890625 -3.234375 L 3.6875 -6.71875 L 2.421875 -3.234375 Z M 3.125 -7.890625 L 4.34375 -7.890625 L 7.203125 0 L 6.03125 0 L 5.234375 -2.359375 L 2.109375 -2.359375 L 1.25 0 L 0.15625 0 Z M 3.765625 -8.65625 C 3.953125 -8.65625 4.109375 -8.71875 4.234375 -8.84375 C 4.367188 -8.976562 4.4375 -9.140625 4.4375 -9.328125 C 4.4375 -9.515625 4.367188 -9.671875 4.234375 -9.796875 C 4.109375 -9.929688 3.953125 -10 3.765625 -10 C 3.578125 -10 3.414062 -9.929688 3.28125 -9.796875 C 3.15625 -9.671875 3.09375 -9.515625 3.09375 -9.328125 C 3.09375 -9.140625 3.15625 -8.976562 3.28125 -8.84375 C 3.414062 -8.71875 3.578125 -8.65625 3.765625 -8.65625 Z M 3.765625 -10.453125 C 4.066406 -10.453125 4.328125 -10.34375 4.546875 -10.125 C 4.773438 -9.90625 4.890625 -9.640625 4.890625 -9.328125 C 4.890625 -9.023438 4.773438 -8.757812 4.546875 -8.53125 C 4.328125 -8.3125 4.066406 -8.203125 3.765625 -8.203125 C 3.453125 -8.203125 3.1875 -8.3125 2.96875 -8.53125 C 2.75 -8.757812 2.640625 -9.023438 2.640625 -9.328125 C 2.640625 -9.640625 2.75 -9.90625 2.96875 -10.125 C 3.1875 -10.34375 3.453125 -10.453125 3.765625 -10.453125 Z M 3.765625 -10.453125 "/>
</g>
<g id="glyph-1-2">
<path d="M 0.734375 -5.75 L 1.65625 -5.75 L 1.65625 -4.765625 C 1.726562 -4.953125 1.910156 -5.179688 2.203125 -5.453125 C 2.492188 -5.734375 2.832031 -5.875 3.21875 -5.875 C 3.238281 -5.875 3.269531 -5.875 3.3125 -5.875 C 3.351562 -5.875 3.425781 -5.867188 3.53125 -5.859375 L 3.53125 -4.828125 C 3.476562 -4.835938 3.425781 -4.84375 3.375 -4.84375 C 3.320312 -4.851562 3.269531 -4.859375 3.21875 -4.859375 C 2.726562 -4.859375 2.351562 -4.703125 2.09375 -4.390625 C 1.832031 -4.078125 1.703125 -3.71875 1.703125 -3.3125 L 1.703125 0 L 0.734375 0 Z M 0.734375 -5.75 "/>
</g>
<g id="glyph-1-3">
<path d="M 0.703125 -5.75 L 1.625 -5.75 L 1.625 -4.9375 C 1.894531 -5.269531 2.179688 -5.507812 2.484375 -5.65625 C 2.796875 -5.800781 3.132812 -5.875 3.5 -5.875 C 4.320312 -5.875 4.875 -5.59375 5.15625 -5.03125 C 5.3125 -4.71875 5.390625 -4.269531 5.390625 -3.6875 L 5.390625 0 L 4.421875 0 L 4.421875 -3.625 C 4.421875 -3.976562 4.367188 -4.257812 4.265625 -4.46875 C 4.085938 -4.832031 3.773438 -5.015625 3.328125 -5.015625 C 3.097656 -5.015625 2.910156 -4.988281 2.765625 -4.9375 C 2.492188 -4.863281 2.257812 -4.707031 2.0625 -4.46875 C 1.90625 -4.28125 1.800781 -4.082031 1.75 -3.875 C 1.695312 -3.675781 1.671875 -3.390625 1.671875 -3.015625 L 1.671875 0 L 0.703125 0 Z M 2.984375 -5.890625 Z M 2.984375 -5.890625 "/>
</g>
<g id="glyph-1-4">
<path d="M 1.046875 -5.453125 L 1.046875 -6.1875 C 1.742188 -6.257812 2.226562 -6.375 2.5 -6.53125 C 2.78125 -6.6875 2.988281 -7.0625 3.125 -7.65625 L 3.890625 -7.65625 L 3.890625 0 L 2.859375 0 L 2.859375 -5.453125 Z M 1.046875 -5.453125 "/>
</g>
<g id="glyph-2-0">
<path d="M 0 -0.359375 L -7.890625 -0.359375 L -7.890625 -6.625 L 0 -6.625 Z M -0.984375 -5.625 L -6.90625 -5.625 L -6.90625 -1.34375 L -0.984375 -1.34375 Z M -0.984375 -5.625 "/>
</g>
<g id="glyph-2-1">
<path d="M -8.09375 -4.25 C -8.09375 -4.988281 -7.953125 -5.628906 -7.671875 -6.171875 C -7.253906 -6.953125 -6.53125 -7.429688 -5.5 -7.609375 L -5.5 -6.546875 C -6.070312 -6.421875 -6.488281 -6.15625 -6.75 -5.75 C -7.019531 -5.34375 -7.15625 -4.832031 -7.15625 -4.21875 C -7.15625 -3.488281 -6.878906 -2.875 -6.328125 -2.375 C -5.785156 -1.875 -4.972656 -1.625 -3.890625 -1.625 C -2.941406 -1.625 -2.171875 -1.828125 -1.578125 -2.234375 C -0.992188 -2.648438 -0.703125 -3.328125 -0.703125 -4.265625 C -0.703125 -4.972656 -0.910156 -5.5625 -1.328125 -6.03125 C -1.742188 -6.5 -2.410156 -6.738281 -3.328125 -6.75 L -3.328125 -4.28125 L -4.21875 -4.28125 L -4.21875 -7.734375 L 0 -7.734375 L 0 -7.046875 L -1.015625 -6.796875 C -0.617188 -6.429688 -0.34375 -6.109375 -0.1875 -5.828125 C 0.0703125 -5.359375 0.203125 -4.765625 0.203125 -4.046875 C 0.203125 -3.109375 -0.0976562 -2.304688 -0.703125 -1.640625 C -1.460938 -0.898438 -2.503906 -0.53125 -3.828125 -0.53125 C -5.148438 -0.53125 -6.203125 -0.890625 -6.984375 -1.609375 C -7.722656 -2.285156 -8.09375 -3.164062 -8.09375 -4.25 Z M -8.109375 -4.078125 Z M -8.109375 -4.078125 "/>
</g>
<g id="glyph-2-2">
<path d="M -5.71875 -0.703125 L -5.71875 -1.6875 L 0 -1.6875 L 0 -0.703125 Z M -7.890625 -0.703125 L -7.890625 -1.6875 L -6.796875 -1.6875 L -6.796875 -0.703125 Z M -7.890625 -0.703125 "/>
</g>
<g id="glyph-2-3">
<path d="M -5.75 -0.703125 L -5.75 -1.625 L -4.9375 -1.625 C -5.269531 -1.894531 -5.507812 -2.179688 -5.65625 -2.484375 C -5.800781 -2.796875 -5.875 -3.132812 -5.875 -3.5 C -5.875 -4.320312 -5.59375 -4.875 -5.03125 -5.15625 C -4.71875 -5.3125 -4.269531 -5.390625 -3.6875 -5.390625 L 0 -5.390625 L 0 -4.421875 L -3.625 -4.421875 C -3.976562 -4.421875 -4.257812 -4.367188 -4.46875 -4.265625 C -4.832031 -4.085938 -5.015625 -3.773438 -5.015625 -3.328125 C -5.015625 -3.097656 -4.988281 -2.910156 -4.9375 -2.765625 C -4.863281 -2.492188 -4.707031 -2.257812 -4.46875 -2.0625 C -4.28125 -1.90625 -4.082031 -1.800781 -3.875 -1.75 C -3.675781 -1.695312 -3.390625 -1.671875 -3.015625 -1.671875 L 0 -1.671875 L 0 -0.703125 Z M -5.890625 -2.984375 Z M -5.890625 -2.984375 "/>
</g>
<g id="glyph-2-4">
<path d="M -3.5625 -0.453125 L -3.5625 -3.15625 L -2.5625 -3.15625 L -2.5625 -0.453125 Z M -3.5625 -0.453125 "/>
</g>
<g id="glyph-2-5">
<path d="M -7.890625 -0.6875 L -7.890625 -1.609375 L -3.3125 -1.609375 L -5.75 -4.09375 L -5.75 -5.328125 L -3.59375 -3.125 L 0 -5.453125 L 0 -4.21875 L -2.90625 -2.421875 L -2.15625 -1.609375 L 0 -1.609375 L 0 -0.6875 Z M -7.890625 -0.6875 "/>
</g>
<g id="glyph-2-6">
<path d="M -0.625 -2.984375 C -0.625 -3.628906 -0.863281 -4.070312 -1.34375 -4.3125 C -1.832031 -4.550781 -2.375 -4.671875 -2.96875 -4.671875 C -3.507812 -4.671875 -3.945312 -4.582031 -4.28125 -4.40625 C -4.8125 -4.132812 -5.078125 -3.664062 -5.078125 -3 C -5.078125 -2.40625 -4.847656 -1.972656 -4.390625 -1.703125 C -3.941406 -1.441406 -3.398438 -1.3125 -2.765625 -1.3125 C -2.148438 -1.3125 -1.640625 -1.441406 -1.234375 -1.703125 C -0.828125 -1.972656 -0.625 -2.398438 -0.625 -2.984375 Z M -5.921875 -3.03125 C -5.921875 -3.769531 -5.671875 -4.394531 -5.171875 -4.90625 C -4.679688 -5.414062 -3.957031 -5.671875 -3 -5.671875 C -2.070312 -5.671875 -1.304688 -5.445312 -0.703125 -5 C -0.0976562 -4.550781 0.203125 -3.851562 0.203125 -2.90625 C 0.203125 -2.113281 -0.0625 -1.484375 -0.59375 -1.015625 C -1.125 -0.546875 -1.84375 -0.3125 -2.75 -0.3125 C -3.71875 -0.3125 -4.488281 -0.554688 -5.0625 -1.046875 C -5.632812 -1.535156 -5.921875 -2.195312 -5.921875 -3.03125 Z M -5.890625 -3 Z M -5.890625 -3 "/>
</g>
<g id="glyph-2-7">
<path d="M -5.875 -3.109375 C -5.875 -3.515625 -5.78125 -3.90625 -5.59375 -4.28125 C -5.40625 -4.664062 -5.15625 -4.960938 -4.84375 -5.171875 C -4.5625 -5.359375 -4.222656 -5.484375 -3.828125 -5.546875 C -3.566406 -5.609375 -3.144531 -5.640625 -2.5625 -5.640625 L -2.5625 -1.421875 C -1.976562 -1.441406 -1.507812 -1.578125 -1.15625 -1.828125 C -0.8125 -2.085938 -0.640625 -2.488281 -0.640625 -3.03125 C -0.640625 -3.539062 -0.804688 -3.945312 -1.140625 -4.25 C -1.328125 -4.414062 -1.550781 -4.535156 -1.8125 -4.609375 L -1.8125 -5.5625 C -1.59375 -5.53125 -1.351562 -5.441406 -1.09375 -5.296875 C -0.832031 -5.160156 -0.625 -5.003906 -0.46875 -4.828125 C -0.175781 -4.535156 0.0195312 -4.175781 0.125 -3.75 C 0.175781 -3.507812 0.203125 -3.242188 0.203125 -2.953125 C 0.203125 -2.234375 -0.0546875 -1.625 -0.578125 -1.125 C -1.097656 -0.632812 -1.828125 -0.390625 -2.765625 -0.390625 C -3.691406 -0.390625 -4.441406 -0.640625 -5.015625 -1.140625 C -5.585938 -1.640625 -5.875 -2.296875 -5.875 -3.109375 Z M -3.328125 -4.640625 C -3.753906 -4.609375 -4.09375 -4.519531 -4.34375 -4.375 C -4.800781 -4.101562 -5.03125 -3.660156 -5.03125 -3.046875 C -5.03125 -2.597656 -4.867188 -2.222656 -4.546875 -1.921875 C -4.234375 -1.628906 -3.828125 -1.472656 -3.328125 -1.453125 Z M -5.890625 -3.015625 Z M -5.890625 -3.015625 "/>
</g>
<g id="glyph-2-8">
<path d="M -6.625 -0.953125 C -7.03125 -0.960938 -7.328125 -1.03125 -7.515625 -1.15625 C -7.835938 -1.382812 -8 -1.820312 -8 -2.46875 C -8 -2.53125 -8 -2.59375 -8 -2.65625 C -8 -2.71875 -7.992188 -2.789062 -7.984375 -2.875 L -7.09375 -2.875 C -7.101562 -2.769531 -7.109375 -2.695312 -7.109375 -2.65625 C -7.109375 -2.613281 -7.109375 -2.570312 -7.109375 -2.53125 C -7.109375 -2.238281 -7.03125 -2.0625 -6.875 -2 C -6.726562 -1.945312 -6.34375 -1.921875 -5.71875 -1.921875 L -5.71875 -2.875 L -4.96875 -2.875 L -4.96875 -1.90625 L 0 -1.90625 L 0 -0.953125 L -4.96875 -0.953125 L -4.96875 -0.15625 L -5.71875 -0.15625 L -5.71875 -0.953125 Z M -6.625 -0.953125 "/>
</g>
<g id="glyph-2-9">
<path d="M -6.625 -0.953125 C -7.03125 -0.960938 -7.328125 -1.03125 -7.515625 -1.15625 C -7.835938 -1.382812 -8 -1.820312 -8 -2.46875 C -8 -2.53125 -8 -2.59375 -8 -2.65625 C -8 -2.71875 -7.992188 -2.789062 -7.984375 -2.875 L -7.09375 -2.875 C -7.101562 -2.769531 -7.109375 -2.695312 -7.109375 -2.65625 C -7.109375 -2.613281 -7.109375 -2.570312 -7.109375 -2.53125 C -7.109375 -2.238281 -7.03125 -2.0625 -6.875 -2 C -6.726562 -1.945312 -6.34375 -1.921875 -5.71875 -1.921875 L -5.71875 -2.875 L -4.96875 -2.875 L -4.96875 -1.90625 L 0 -1.90625 L 0 -0.953125 L -4.96875 -0.953125 L -4.96875 -0.15625 L -5.71875 -0.15625 L -5.71875 -0.953125 Z M -6.796875 -3.796875 L -7.890625 -3.796875 L -7.890625 -4.765625 L -6.796875 -4.765625 Z M -5.71875 -3.796875 L -5.71875 -4.765625 L 0 -4.765625 L 0 -3.796875 Z M -5.71875 -3.796875 "/>
</g>
<g id="glyph-2-10">
<path d="M -1.8125 -1.28125 C -1.488281 -1.3125 -1.238281 -1.394531 -1.0625 -1.53125 C -0.75 -1.769531 -0.59375 -2.191406 -0.59375 -2.796875 C -0.59375 -3.148438 -0.671875 -3.460938 -0.828125 -3.734375 C -0.984375 -4.003906 -1.222656 -4.140625 -1.546875 -4.140625 C -1.796875 -4.140625 -1.984375 -4.03125 -2.109375 -3.8125 C -2.191406 -3.675781 -2.285156 -3.398438 -2.390625 -2.984375 L -2.578125 -2.21875 C -2.703125 -1.726562 -2.835938 -1.367188 -2.984375 -1.140625 C -3.253906 -0.722656 -3.617188 -0.515625 -4.078125 -0.515625 C -4.617188 -0.515625 -5.054688 -0.707031 -5.390625 -1.09375 C -5.734375 -1.488281 -5.90625 -2.019531 -5.90625 -2.6875 C -5.90625 -3.550781 -5.648438 -4.175781 -5.140625 -4.5625 C -4.816406 -4.800781 -4.46875 -4.914062 -4.09375 -4.90625 L -4.09375 -4 C -4.3125 -3.976562 -4.507812 -3.898438 -4.6875 -3.765625 C -4.945312 -3.546875 -5.078125 -3.160156 -5.078125 -2.609375 C -5.078125 -2.242188 -5.003906 -1.96875 -4.859375 -1.78125 C -4.722656 -1.59375 -4.539062 -1.5 -4.3125 -1.5 C -4.0625 -1.5 -3.863281 -1.625 -3.71875 -1.875 C -3.625 -2.007812 -3.539062 -2.21875 -3.46875 -2.5 L -3.3125 -3.140625 C -3.144531 -3.835938 -2.984375 -4.300781 -2.828125 -4.53125 C -2.578125 -4.914062 -2.191406 -5.109375 -1.671875 -5.109375 C -1.148438 -5.109375 -0.703125 -4.910156 -0.328125 -4.515625 C 0.0351562 -4.128906 0.21875 -3.539062 0.21875 -2.75 C 0.21875 -1.894531 0.0234375 -1.285156 -0.359375 -0.921875 C -0.753906 -0.566406 -1.238281 -0.378906 -1.8125 -0.359375 Z M -5.890625 -2.71875 Z M -5.890625 -2.71875 "/>
</g>
<g id="glyph-2-11">
<path d="M -7.359375 -0.90625 L -7.359375 -1.875 L -5.75 -1.875 L -5.75 -2.796875 L -4.96875 -2.796875 L -4.96875 -1.875 L -1.203125 -1.875 C -1.003906 -1.875 -0.875 -1.941406 -0.8125 -2.078125 C -0.769531 -2.160156 -0.75 -2.285156 -0.75 -2.453125 C -0.75 -2.503906 -0.75 -2.554688 -0.75 -2.609375 C -0.75 -2.660156 -0.753906 -2.722656 -0.765625 -2.796875 L 0 -2.796875 C 0.03125 -2.679688 0.0507812 -2.5625 0.0625 -2.4375 C 0.0820312 -2.320312 0.09375 -2.195312 0.09375 -2.0625 C 0.09375 -1.613281 -0.0195312 -1.304688 -0.25 -1.140625 C -0.488281 -0.984375 -0.789062 -0.90625 -1.15625 -0.90625 L -4.96875 -0.90625 L -4.96875 -0.125 L -5.75 -0.125 L -5.75 -0.90625 Z M -7.359375 -0.90625 "/>
</g>
<g id="glyph-3-0">
<path d="M 0.421875 0 L 0.421875 -9.46875 L 7.9375 -9.46875 L 7.9375 0 Z M 6.75 -1.1875 L 6.75 -8.28125 L 1.609375 -8.28125 L 1.609375 -1.1875 Z M 6.75 -1.1875 "/>
</g>
<g id="glyph-3-1">
<path d="M 2.390625 -9.46875 L 2.390625 -3.609375 C 2.390625 -2.921875 2.519531 -2.351562 2.78125 -1.90625 C 3.164062 -1.21875 3.8125 -0.875 4.71875 -0.875 C 5.800781 -0.875 6.539062 -1.242188 6.9375 -1.984375 C 7.144531 -2.390625 7.25 -2.929688 7.25 -3.609375 L 7.25 -9.46875 L 8.5625 -9.46875 L 8.5625 -4.15625 C 8.5625 -2.988281 8.398438 -2.09375 8.078125 -1.46875 C 7.503906 -0.320312 6.421875 0.25 4.828125 0.25 C 3.222656 0.25 2.132812 -0.320312 1.5625 -1.46875 C 1.25 -2.09375 1.09375 -2.988281 1.09375 -4.15625 L 1.09375 -9.46875 Z M 4.828125 -9.46875 Z M 4.828125 -9.46875 "/>
</g>
<g id="glyph-3-2">
<path d="M 1.078125 -8.828125 L 2.25 -8.828125 L 2.25 -6.90625 L 3.359375 -6.90625 L 3.359375 -5.953125 L 2.25 -5.953125 L 2.25 -1.453125 C 2.25 -1.210938 2.332031 -1.050781 2.5 -0.96875 C 2.59375 -0.914062 2.742188 -0.890625 2.953125 -0.890625 C 3.003906 -0.890625 3.0625 -0.890625 3.125 -0.890625 C 3.195312 -0.898438 3.273438 -0.910156 3.359375 -0.921875 L 3.359375 0 C 3.222656 0.0390625 3.082031 0.0664062 2.9375 0.078125 C 2.800781 0.0976562 2.644531 0.109375 2.46875 0.109375 C 1.925781 0.109375 1.554688 -0.0234375 1.359375 -0.296875 C 1.171875 -0.578125 1.078125 -0.941406 1.078125 -1.390625 L 1.078125 -5.953125 L 0.140625 -5.953125 L 0.140625 -6.90625 L 1.078125 -6.90625 Z M 1.078125 -8.828125 "/>
</g>
<g id="glyph-3-3">
<path d="M 1.421875 -6.90625 L 3.265625 -1.28125 L 5.1875 -6.90625 L 6.453125 -6.90625 L 3.859375 0 L 2.625 0 L 0.078125 -6.90625 Z M 1.421875 -6.90625 "/>
</g>
<g id="glyph-3-4">
<path d="M 0.84375 -6.875 L 2.03125 -6.875 L 2.03125 0 L 0.84375 0 Z M 0.84375 -9.46875 L 2.03125 -9.46875 L 2.03125 -8.15625 L 0.84375 -8.15625 Z M 0.84375 -9.46875 "/>
</g>
<g id="glyph-3-5">
<path d="M 0.828125 -9.46875 L 1.9375 -9.46875 L 1.9375 -3.96875 L 4.921875 -6.90625 L 6.40625 -6.90625 L 3.765625 -4.3125 L 6.546875 0 L 5.0625 0 L 2.90625 -3.484375 L 1.9375 -2.59375 L 1.9375 0 L 0.828125 0 Z M 0.828125 -9.46875 "/>
</g>
<g id="glyph-3-6">
<path d="M 0.890625 -9.46875 L 2.046875 -9.46875 L 2.046875 0 L 0.890625 0 Z M 0.890625 -9.46875 "/>
</g>
<g id="glyph-3-7">
<path d="M 0.84375 -6.90625 L 1.953125 -6.90625 L 1.953125 -5.921875 C 2.273438 -6.328125 2.617188 -6.617188 2.984375 -6.796875 C 3.359375 -6.972656 3.765625 -7.0625 4.203125 -7.0625 C 5.179688 -7.0625 5.847656 -6.71875 6.203125 -6.03125 C 6.390625 -5.65625 6.484375 -5.117188 6.484375 -4.421875 L 6.484375 0 L 5.296875 0 L 5.296875 -4.359375 C 5.296875 -4.773438 5.234375 -5.113281 5.109375 -5.375 C 4.898438 -5.800781 4.523438 -6.015625 3.984375 -6.015625 C 3.710938 -6.015625 3.488281 -5.988281 3.3125 -5.9375 C 3 -5.84375 2.71875 -5.648438 2.46875 -5.359375 C 2.28125 -5.128906 2.15625 -4.894531 2.09375 -4.65625 C 2.039062 -4.414062 2.015625 -4.066406 2.015625 -3.609375 L 2.015625 0 L 0.84375 0 Z M 3.578125 -7.078125 Z M 3.578125 -7.078125 "/>
</g>
<g id="glyph-3-8">
<path d="M 3.28125 -7.03125 C 3.820312 -7.03125 4.296875 -6.894531 4.703125 -6.625 C 4.921875 -6.476562 5.144531 -6.257812 5.375 -5.96875 L 5.375 -6.84375 L 6.453125 -6.84375 L 6.453125 -0.5625 C 6.453125 0.308594 6.320312 1.003906 6.0625 1.515625 C 5.582031 2.453125 4.671875 2.921875 3.328125 2.921875 C 2.585938 2.921875 1.960938 2.753906 1.453125 2.421875 C 0.953125 2.085938 0.671875 1.566406 0.609375 0.859375 L 1.78125 0.859375 C 1.84375 1.171875 1.957031 1.410156 2.125 1.578125 C 2.382812 1.828125 2.796875 1.953125 3.359375 1.953125 C 4.242188 1.953125 4.828125 1.640625 5.109375 1.015625 C 5.265625 0.648438 5.335938 -0.00390625 5.328125 -0.953125 C 5.097656 -0.609375 4.816406 -0.347656 4.484375 -0.171875 C 4.160156 -0.00390625 3.734375 0.078125 3.203125 0.078125 C 2.453125 0.078125 1.796875 -0.1875 1.234375 -0.71875 C 0.671875 -1.25 0.390625 -2.125 0.390625 -3.34375 C 0.390625 -4.5 0.671875 -5.398438 1.234375 -6.046875 C 1.804688 -6.703125 2.488281 -7.03125 3.28125 -7.03125 Z M 5.375 -3.484375 C 5.375 -4.335938 5.195312 -4.96875 4.84375 -5.375 C 4.488281 -5.789062 4.039062 -6 3.5 -6 C 2.6875 -6 2.128906 -5.617188 1.828125 -4.859375 C 1.660156 -4.441406 1.578125 -3.90625 1.578125 -3.25 C 1.578125 -2.46875 1.734375 -1.875 2.046875 -1.46875 C 2.367188 -1.0625 2.796875 -0.859375 3.328125 -0.859375 C 4.160156 -0.859375 4.75 -1.234375 5.09375 -1.984375 C 5.28125 -2.410156 5.375 -2.910156 5.375 -3.484375 Z M 3.421875 -7.078125 Z M 3.421875 -7.078125 "/>
</g>
<g id="glyph-3-9">
<path d="M 3.71875 -7.0625 C 4.21875 -7.0625 4.695312 -6.945312 5.15625 -6.71875 C 5.613281 -6.488281 5.960938 -6.191406 6.203125 -5.828125 C 6.429688 -5.472656 6.585938 -5.066406 6.671875 -4.609375 C 6.734375 -4.285156 6.765625 -3.773438 6.765625 -3.078125 L 1.703125 -3.078125 C 1.722656 -2.378906 1.890625 -1.816406 2.203125 -1.390625 C 2.515625 -0.972656 2.992188 -0.765625 3.640625 -0.765625 C 4.242188 -0.765625 4.726562 -0.960938 5.09375 -1.359375 C 5.300781 -1.585938 5.445312 -1.859375 5.53125 -2.171875 L 6.671875 -2.171875 C 6.640625 -1.910156 6.539062 -1.625 6.375 -1.3125 C 6.207031 -1 6.015625 -0.742188 5.796875 -0.546875 C 5.453125 -0.203125 5.019531 0.0234375 4.5 0.140625 C 4.21875 0.210938 3.898438 0.25 3.546875 0.25 C 2.679688 0.25 1.953125 -0.0625 1.359375 -0.6875 C 0.765625 -1.3125 0.46875 -2.1875 0.46875 -3.3125 C 0.46875 -4.425781 0.765625 -5.328125 1.359375 -6.015625 C 1.960938 -6.710938 2.75 -7.0625 3.71875 -7.0625 Z M 5.578125 -4 C 5.523438 -4.5 5.414062 -4.898438 5.25 -5.203125 C 4.925781 -5.765625 4.394531 -6.046875 3.65625 -6.046875 C 3.125 -6.046875 2.675781 -5.851562 2.3125 -5.46875 C 1.945312 -5.082031 1.753906 -4.59375 1.734375 -4 Z M 3.609375 -7.078125 Z M 3.609375 -7.078125 "/>
</g>
<g id="glyph-3-10">
</g>
<g id="glyph-3-11">
<path d="M 5.09375 -9.71875 C 5.988281 -9.71875 6.757812 -9.546875 7.40625 -9.203125 C 8.34375 -8.703125 8.921875 -7.835938 9.140625 -6.609375 L 7.859375 -6.609375 C 7.710938 -7.296875 7.394531 -7.796875 6.90625 -8.109375 C 6.414062 -8.429688 5.800781 -8.59375 5.0625 -8.59375 C 4.1875 -8.59375 3.445312 -8.257812 2.84375 -7.59375 C 2.25 -6.9375 1.953125 -5.957031 1.953125 -4.65625 C 1.953125 -3.53125 2.195312 -2.613281 2.6875 -1.90625 C 3.1875 -1.195312 3.992188 -0.84375 5.109375 -0.84375 C 5.960938 -0.84375 6.671875 -1.09375 7.234375 -1.59375 C 7.796875 -2.09375 8.082031 -2.894531 8.09375 -4 L 5.125 -4 L 5.125 -5.0625 L 9.296875 -5.0625 L 9.296875 0 L 8.46875 0 L 8.15625 -1.21875 C 7.71875 -0.738281 7.332031 -0.40625 7 -0.21875 C 6.4375 0.0898438 5.722656 0.25 4.859375 0.25 C 3.734375 0.25 2.765625 -0.113281 1.953125 -0.84375 C 1.078125 -1.75 0.640625 -3 0.640625 -4.59375 C 0.640625 -6.175781 1.066406 -7.4375 1.921875 -8.375 C 2.742188 -9.269531 3.800781 -9.71875 5.09375 -9.71875 Z M 4.890625 -9.734375 Z M 4.890625 -9.734375 "/>
</g>
<g id="glyph-3-12">
<path d="M 0.546875 -4.28125 L 3.78125 -4.28125 L 3.78125 -3.078125 L 0.546875 -3.078125 Z M 0.546875 -4.28125 "/>
</g>
<g id="glyph-3-13">
<path d="M 3.59375 -0.75 C 4.363281 -0.75 4.890625 -1.039062 5.171875 -1.625 C 5.460938 -2.207031 5.609375 -2.851562 5.609375 -3.5625 C 5.609375 -4.207031 5.503906 -4.734375 5.296875 -5.140625 C 4.960938 -5.773438 4.398438 -6.09375 3.609375 -6.09375 C 2.898438 -6.09375 2.382812 -5.820312 2.0625 -5.28125 C 1.738281 -4.738281 1.578125 -4.082031 1.578125 -3.3125 C 1.578125 -2.582031 1.738281 -1.972656 2.0625 -1.484375 C 2.382812 -0.992188 2.894531 -0.75 3.59375 -0.75 Z M 3.640625 -7.109375 C 4.523438 -7.109375 5.273438 -6.8125 5.890625 -6.21875 C 6.503906 -5.625 6.8125 -4.75 6.8125 -3.59375 C 6.8125 -2.476562 6.539062 -1.554688 6 -0.828125 C 5.457031 -0.109375 4.617188 0.25 3.484375 0.25 C 2.535156 0.25 1.78125 -0.0664062 1.21875 -0.703125 C 0.65625 -1.347656 0.375 -2.210938 0.375 -3.296875 C 0.375 -4.460938 0.664062 -5.390625 1.25 -6.078125 C 1.84375 -6.765625 2.640625 -7.109375 3.640625 -7.109375 Z M 3.59375 -7.078125 Z M 3.59375 -7.078125 "/>
</g>
<g id="glyph-3-14">
<path d="M 1.140625 -7.953125 C 1.160156 -8.429688 1.242188 -8.785156 1.390625 -9.015625 C 1.660156 -9.410156 2.179688 -9.609375 2.953125 -9.609375 C 3.023438 -9.609375 3.097656 -9.601562 3.171875 -9.59375 C 3.253906 -9.59375 3.347656 -9.585938 3.453125 -9.578125 L 3.453125 -8.515625 C 3.328125 -8.523438 3.238281 -8.53125 3.1875 -8.53125 C 3.132812 -8.539062 3.082031 -8.546875 3.03125 -8.546875 C 2.6875 -8.546875 2.476562 -8.453125 2.40625 -8.265625 C 2.332031 -8.085938 2.296875 -7.625 2.296875 -6.875 L 3.453125 -6.875 L 3.453125 -5.953125 L 2.28125 -5.953125 L 2.28125 0 L 1.140625 0 L 1.140625 -5.953125 L 0.1875 -5.953125 L 0.1875 -6.875 L 1.140625 -6.875 Z M 1.140625 -7.953125 "/>
</g>
<g id="glyph-3-15">
<path d="M 1.140625 -7.953125 C 1.160156 -8.429688 1.242188 -8.785156 1.390625 -9.015625 C 1.660156 -9.410156 2.179688 -9.609375 2.953125 -9.609375 C 3.023438 -9.609375 3.097656 -9.601562 3.171875 -9.59375 C 3.253906 -9.59375 3.347656 -9.585938 3.453125 -9.578125 L 3.453125 -8.515625 C 3.328125 -8.523438 3.238281 -8.53125 3.1875 -8.53125 C 3.132812 -8.539062 3.082031 -8.546875 3.03125 -8.546875 C 2.6875 -8.546875 2.476562 -8.453125 2.40625 -8.265625 C 2.332031 -8.085938 2.296875 -7.625 2.296875 -6.875 L 3.453125 -6.875 L 3.453125 -5.953125 L 2.28125 -5.953125 L 2.28125 0 L 1.140625 0 L 1.140625 -5.953125 L 0.1875 -5.953125 L 0.1875 -6.875 L 1.140625 -6.875 Z M 4.5625 -8.15625 L 4.5625 -9.46875 L 5.71875 -9.46875 L 5.71875 -8.15625 Z M 4.5625 -6.875 L 5.71875 -6.875 L 5.71875 0 L 4.5625 0 Z M 4.5625 -6.875 "/>
</g>
<g id="glyph-3-16">
<path d="M 1.546875 -2.171875 C 1.578125 -1.773438 1.671875 -1.476562 1.828125 -1.28125 C 2.117188 -0.90625 2.628906 -0.71875 3.359375 -0.71875 C 3.785156 -0.71875 4.160156 -0.8125 4.484375 -1 C 4.816406 -1.1875 4.984375 -1.472656 4.984375 -1.859375 C 4.984375 -2.160156 4.847656 -2.390625 4.578125 -2.546875 C 4.410156 -2.640625 4.082031 -2.75 3.59375 -2.875 L 2.671875 -3.09375 C 2.078125 -3.238281 1.640625 -3.40625 1.359375 -3.59375 C 0.867188 -3.90625 0.625 -4.335938 0.625 -4.890625 C 0.625 -5.546875 0.859375 -6.070312 1.328125 -6.46875 C 1.796875 -6.875 2.425781 -7.078125 3.21875 -7.078125 C 4.257812 -7.078125 5.007812 -6.773438 5.46875 -6.171875 C 5.757812 -5.785156 5.898438 -5.367188 5.890625 -4.921875 L 4.796875 -4.921875 C 4.773438 -5.179688 4.679688 -5.421875 4.515625 -5.640625 C 4.253906 -5.941406 3.796875 -6.09375 3.140625 -6.09375 C 2.691406 -6.09375 2.351562 -6.007812 2.125 -5.84375 C 1.90625 -5.675781 1.796875 -5.453125 1.796875 -5.171875 C 1.796875 -4.867188 1.945312 -4.628906 2.25 -4.453125 C 2.414062 -4.347656 2.664062 -4.253906 3 -4.171875 L 3.765625 -3.984375 C 4.597656 -3.785156 5.160156 -3.585938 5.453125 -3.390625 C 5.898438 -3.097656 6.125 -2.632812 6.125 -2 C 6.125 -1.382812 5.890625 -0.851562 5.421875 -0.40625 C 4.953125 0.0390625 4.242188 0.265625 3.296875 0.265625 C 2.265625 0.265625 1.535156 0.0273438 1.109375 -0.4375 C 0.679688 -0.90625 0.453125 -1.484375 0.421875 -2.171875 Z M 3.25 -7.078125 Z M 3.25 -7.078125 "/>
</g>
<g id="glyph-3-17">
<path d="M 0.890625 -6.90625 L 1.984375 -6.90625 L 1.984375 -5.71875 C 2.078125 -5.945312 2.296875 -6.226562 2.640625 -6.5625 C 2.992188 -6.894531 3.40625 -7.0625 3.875 -7.0625 C 3.894531 -7.0625 3.929688 -7.054688 3.984375 -7.046875 C 4.035156 -7.046875 4.117188 -7.039062 4.234375 -7.03125 L 4.234375 -5.796875 C 4.171875 -5.816406 4.109375 -5.828125 4.046875 -5.828125 C 3.992188 -5.828125 3.929688 -5.828125 3.859375 -5.828125 C 3.273438 -5.828125 2.828125 -5.640625 2.515625 -5.265625 C 2.203125 -4.890625 2.046875 -4.457031 2.046875 -3.96875 L 2.046875 0 L 0.890625 0 Z M 0.890625 -6.90625 "/>
</g>
<g id="glyph-3-18">
<path d="M 1 -9.46875 L 2.515625 -9.46875 L 7.296875 -1.796875 L 7.296875 -9.46875 L 8.515625 -9.46875 L 8.515625 0 L 7.078125 0 L 2.234375 -7.671875 L 2.234375 0 L 1 0 Z M 4.6875 -9.46875 Z M 4.6875 -9.46875 "/>
</g>
<g id="glyph-3-19">
<path d="M 7.890625 -9.46875 L 7.890625 -8.34375 L 4.703125 -8.34375 L 4.703125 0 L 3.40625 0 L 3.40625 -8.34375 L 0.21875 -8.34375 L 0.21875 -9.46875 Z M 7.890625 -9.46875 "/>
</g>
<g id="glyph-3-20">
<path d="M 1.84375 -3.0625 C 1.875 -2.519531 2 -2.082031 2.21875 -1.75 C 2.644531 -1.125 3.394531 -0.8125 4.46875 -0.8125 C 4.957031 -0.8125 5.398438 -0.878906 5.796875 -1.015625 C 6.554688 -1.273438 6.9375 -1.75 6.9375 -2.4375 C 6.9375 -2.957031 6.773438 -3.328125 6.453125 -3.546875 C 6.128906 -3.765625 5.617188 -3.953125 4.921875 -4.109375 L 3.640625 -4.390625 C 2.796875 -4.585938 2.203125 -4.796875 1.859375 -5.015625 C 1.253906 -5.410156 0.953125 -6.003906 0.953125 -6.796875 C 0.953125 -7.648438 1.242188 -8.347656 1.828125 -8.890625 C 2.421875 -9.429688 3.257812 -9.703125 4.34375 -9.703125 C 5.332031 -9.703125 6.171875 -9.460938 6.859375 -8.984375 C 7.554688 -8.503906 7.90625 -7.738281 7.90625 -6.6875 L 6.703125 -6.6875 C 6.640625 -7.195312 6.503906 -7.585938 6.296875 -7.859375 C 5.898438 -8.347656 5.234375 -8.59375 4.296875 -8.59375 C 3.546875 -8.59375 3.003906 -8.429688 2.671875 -8.109375 C 2.335938 -7.796875 2.171875 -7.429688 2.171875 -7.015625 C 2.171875 -6.546875 2.363281 -6.207031 2.75 -6 C 3.007812 -5.863281 3.582031 -5.691406 4.46875 -5.484375 L 5.796875 -5.171875 C 6.441406 -5.023438 6.9375 -4.828125 7.28125 -4.578125 C 7.882812 -4.128906 8.1875 -3.488281 8.1875 -2.65625 C 8.1875 -1.601562 7.804688 -0.847656 7.046875 -0.390625 C 6.285156 0.0546875 5.398438 0.28125 4.390625 0.28125 C 3.210938 0.28125 2.289062 -0.0195312 1.625 -0.625 C 0.957031 -1.21875 0.628906 -2.03125 0.640625 -3.0625 Z M 4.4375 -9.734375 Z M 4.4375 -9.734375 "/>
</g>
<g id="glyph-3-21">
<path d="M 1.265625 -6.53125 L 1.265625 -7.421875 C 2.097656 -7.503906 2.679688 -7.640625 3.015625 -7.828125 C 3.347656 -8.023438 3.597656 -8.476562 3.765625 -9.1875 L 4.671875 -9.1875 L 4.671875 0 L 3.4375 0 L 3.4375 -6.53125 Z M 1.265625 -6.53125 "/>
</g>
<g id="glyph-3-22">
<path d="M 1.125 -9.46875 L 7.703125 -9.46875 L 7.703125 -8.3125 L 2.40625 -8.3125 L 2.40625 -5.4375 L 7.0625 -5.4375 L 7.0625 -4.3125 L 2.40625 -4.3125 L 2.40625 0 L 1.125 0 Z M 1.125 -9.46875 "/>
</g>
<g id="glyph-3-23">
<path d="M 1.734375 -1.84375 C 1.734375 -1.5 1.851562 -1.226562 2.09375 -1.03125 C 2.34375 -0.84375 2.640625 -0.75 2.984375 -0.75 C 3.390625 -0.75 3.785156 -0.84375 4.171875 -1.03125 C 4.804688 -1.351562 5.125 -1.867188 5.125 -2.578125 L 5.125 -3.515625 C 4.988281 -3.421875 4.804688 -3.34375 4.578125 -3.28125 C 4.359375 -3.226562 4.140625 -3.1875 3.921875 -3.15625 L 3.21875 -3.0625 C 2.800781 -3.007812 2.488281 -2.921875 2.28125 -2.796875 C 1.914062 -2.597656 1.734375 -2.28125 1.734375 -1.84375 Z M 4.546875 -4.1875 C 4.816406 -4.21875 5 -4.328125 5.09375 -4.515625 C 5.132812 -4.617188 5.15625 -4.769531 5.15625 -4.96875 C 5.15625 -5.363281 5.015625 -5.648438 4.734375 -5.828125 C 4.453125 -6.003906 4.050781 -6.09375 3.53125 -6.09375 C 2.925781 -6.09375 2.5 -5.929688 2.25 -5.609375 C 2.101562 -5.421875 2.007812 -5.148438 1.96875 -4.796875 L 0.890625 -4.796875 C 0.910156 -5.648438 1.1875 -6.242188 1.71875 -6.578125 C 2.25 -6.910156 2.863281 -7.078125 3.5625 -7.078125 C 4.375 -7.078125 5.03125 -6.921875 5.53125 -6.609375 C 6.039062 -6.296875 6.296875 -5.8125 6.296875 -5.15625 L 6.296875 -1.1875 C 6.296875 -1.0625 6.316406 -0.960938 6.359375 -0.890625 C 6.410156 -0.816406 6.515625 -0.78125 6.671875 -0.78125 C 6.722656 -0.78125 6.78125 -0.785156 6.84375 -0.796875 C 6.914062 -0.804688 6.988281 -0.816406 7.0625 -0.828125 L 7.0625 0.03125 C 6.875 0.0820312 6.734375 0.113281 6.640625 0.125 C 6.546875 0.132812 6.421875 0.140625 6.265625 0.140625 C 5.859375 0.140625 5.566406 0 5.390625 -0.28125 C 5.296875 -0.425781 5.226562 -0.640625 5.1875 -0.921875 C 4.945312 -0.609375 4.601562 -0.335938 4.15625 -0.109375 C 3.71875 0.117188 3.234375 0.234375 2.703125 0.234375 C 2.066406 0.234375 1.546875 0.0390625 1.140625 -0.34375 C 0.734375 -0.738281 0.53125 -1.226562 0.53125 -1.8125 C 0.53125 -2.445312 0.726562 -2.941406 1.125 -3.296875 C 1.53125 -3.648438 2.054688 -3.867188 2.703125 -3.953125 Z M 3.59375 -7.078125 Z M 3.59375 -7.078125 "/>
</g>
</g>
<clipPath id="clip-0">
<path clip-rule="nonzero" d="M 36.152344 194 L 327.84375 194 L 327.84375 195 L 36.152344 195 Z M 36.152344 194 "/>
</clipPath>
<clipPath id="clip-1">
<path clip-rule="nonzero" d="M 36.152344 137 L 327.84375 137 L 327.84375 139 L 36.152344 139 Z M 36.152344 137 "/>
</clipPath>
<clipPath id="clip-2">
<path clip-rule="nonzero" d="M 36.152344 80 L 327.84375 80 L 327.84375 82 L 36.152344 82 Z M 36.152344 80 "/>
</clipPath>
<clipPath id="clip-3">
<path clip-rule="nonzero" d="M 36.152344 24 L 327.84375 24 L 327.84375 25 L 36.152344 25 Z M 36.152344 24 "/>
</clipPath>
<clipPath id="clip-4">
<path clip-rule="nonzero" d="M 79 23.957031 L 80 23.957031 L 80 218.847656 L 79 218.847656 Z M 79 23.957031 "/>
</clipPath>
<clipPath id="clip-5">
<path clip-rule="nonzero" d="M 139 23.957031 L 141 23.957031 L 141 218.847656 L 139 218.847656 Z M 139 23.957031 "/>
</clipPath>
<clipPath id="clip-6">
<path clip-rule="nonzero" d="M 199 23.957031 L 201 23.957031 L 201 218.847656 L 199 218.847656 Z M 199 23.957031 "/>
</clipPath>
<clipPath id="clip-7">
<path clip-rule="nonzero" d="M 260 23.957031 L 261 23.957031 L 261 218.847656 L 260 218.847656 Z M 260 23.957031 "/>
</clipPath>
<clipPath id="clip-8">
<path clip-rule="nonzero" d="M 320 23.957031 L 321 23.957031 L 321 218.847656 L 320 218.847656 Z M 320 23.957031 "/>
</clipPath>
<clipPath id="clip-9">
<path clip-rule="nonzero" d="M 36.152344 165 L 327.84375 165 L 327.84375 167 L 36.152344 167 Z M 36.152344 165 "/>
</clipPath>
<clipPath id="clip-10">
<path clip-rule="nonzero" d="M 36.152344 109 L 327.84375 109 L 327.84375 111 L 36.152344 111 Z M 36.152344 109 "/>
</clipPath>
<clipPath id="clip-11">
<path clip-rule="nonzero" d="M 36.152344 52 L 327.84375 52 L 327.84375 54 L 36.152344 54 Z M 36.152344 52 "/>
</clipPath>
<clipPath id="clip-12">
<path clip-rule="nonzero" d="M 48 23.957031 L 50 23.957031 L 50 218.847656 L 48 218.847656 Z M 48 23.957031 "/>
</clipPath>
<clipPath id="clip-13">
<path clip-rule="nonzero" d="M 109 23.957031 L 111 23.957031 L 111 218.847656 L 109 218.847656 Z M 109 23.957031 "/>
</clipPath>
<clipPath id="clip-14">
<path clip-rule="nonzero" d="M 169 23.957031 L 171 23.957031 L 171 218.847656 L 169 218.847656 Z M 169 23.957031 "/>
</clipPath>
<clipPath id="clip-15">
<path clip-rule="nonzero" d="M 229 23.957031 L 231 23.957031 L 231 218.847656 L 229 218.847656 Z M 229 23.957031 "/>
</clipPath>
<clipPath id="clip-16">
<path clip-rule="nonzero" d="M 289 23.957031 L 292 23.957031 L 292 218.847656 L 289 218.847656 Z M 289 23.957031 "/>
</clipPath>
</defs>
<rect x="-39.6" y="-25.2" width="475.2" height="302.4" fill="rgb(100%, 100%, 100%)" fill-opacity="1"/>
<rect x="-39.6" y="-25.2" width="475.2" height="302.4" fill="rgb(100%, 100%, 100%)" fill-opacity="1"/>
<g clip-path="url(#clip-0)">
<path fill="none" stroke-width="0.533489" stroke-linecap="butt" stroke-linejoin="round" stroke="rgb(92.156863%, 92.156863%, 92.156863%)" stroke-opacity="1" stroke-miterlimit="10" d="M 36.152344 194.660156 L 327.84375 194.660156 "/>
</g>
<g clip-path="url(#clip-1)">
<path fill="none" stroke-width="0.533489" stroke-linecap="butt" stroke-linejoin="round" stroke="rgb(92.156863%, 92.156863%, 92.156863%)" stroke-opacity="1" stroke-miterlimit="10" d="M 36.152344 137.945312 L 327.84375 137.945312 "/>
</g>
<g clip-path="url(#clip-2)">
<path fill="none" stroke-width="0.533489" stroke-linecap="butt" stroke-linejoin="round" stroke="rgb(92.156863%, 92.156863%, 92.156863%)" stroke-opacity="1" stroke-miterlimit="10" d="M 36.152344 81.226562 L 327.84375 81.226562 "/>
</g>
<g clip-path="url(#clip-3)">
<path fill="none" stroke-width="0.533489" stroke-linecap="butt" stroke-linejoin="round" stroke="rgb(92.156863%, 92.156863%, 92.156863%)" stroke-opacity="1" stroke-miterlimit="10" d="M 36.152344 24.511719 L 327.84375 24.511719 "/>
</g>
<g clip-path="url(#clip-4)">
<path fill="none" stroke-width="0.533489" stroke-linecap="butt" stroke-linejoin="round" stroke="rgb(92.156863%, 92.156863%, 92.156863%)" stroke-opacity="1" stroke-miterlimit="10" d="M 79.542969 218.847656 L 79.542969 23.957031 "/>
</g>
<g clip-path="url(#clip-5)">
<path fill="none" stroke-width="0.533489" stroke-linecap="butt" stroke-linejoin="round" stroke="rgb(92.156863%, 92.156863%, 92.156863%)" stroke-opacity="1" stroke-miterlimit="10" d="M 139.808594 218.847656 L 139.808594 23.957031 "/>
</g>
<g clip-path="url(#clip-6)">
<path fill="none" stroke-width="0.533489" stroke-linecap="butt" stroke-linejoin="round" stroke="rgb(92.156863%, 92.156863%, 92.156863%)" stroke-opacity="1" stroke-miterlimit="10" d="M 200.078125 218.847656 L 200.078125 23.957031 "/>
</g>
<g clip-path="url(#clip-7)">
<path fill="none" stroke-width="0.533489" stroke-linecap="butt" stroke-linejoin="round" stroke="rgb(92.156863%, 92.156863%, 92.156863%)" stroke-opacity="1" stroke-miterlimit="10" d="M 260.34375 218.847656 L 260.34375 23.957031 "/>
</g>
<g clip-path="url(#clip-8)">
<path fill="none" stroke-width="0.533489" stroke-linecap="butt" stroke-linejoin="round" stroke="rgb(92.156863%, 92.156863%, 92.156863%)" stroke-opacity="1" stroke-miterlimit="10" d="M 320.609375 218.847656 L 320.609375 23.957031 "/>
</g>
<g clip-path="url(#clip-9)">
<path fill="none" stroke-width="1.066978" stroke-linecap="butt" stroke-linejoin="round" stroke="rgb(92.156863%, 92.156863%, 92.156863%)" stroke-opacity="1" stroke-miterlimit="10" d="M 36.152344 166.300781 L 327.84375 166.300781 "/>
</g>
<g clip-path="url(#clip-10)">
<path fill="none" stroke-width="1.066978" stroke-linecap="butt" stroke-linejoin="round" stroke="rgb(92.156863%, 92.156863%, 92.156863%)" stroke-opacity="1" stroke-miterlimit="10" d="M 36.152344 109.585938 L 327.84375 109.585938 "/>
</g>
<g clip-path="url(#clip-11)">
<path fill="none" stroke-width="1.066978" stroke-linecap="butt" stroke-linejoin="round" stroke="rgb(92.156863%, 92.156863%, 92.156863%)" stroke-opacity="1" stroke-miterlimit="10" d="M 36.152344 52.871094 L 327.84375 52.871094 "/>
</g>
<g clip-path="url(#clip-12)">
<path fill="none" stroke-width="1.066978" stroke-linecap="butt" stroke-linejoin="round" stroke="rgb(92.156863%, 92.156863%, 92.156863%)" stroke-opacity="1" stroke-miterlimit="10" d="M 49.410156 218.847656 L 49.410156 23.957031 "/>
</g>
<g clip-path="url(#clip-13)">
<path fill="none" stroke-width="1.066978" stroke-linecap="butt" stroke-linejoin="round" stroke="rgb(92.156863%, 92.156863%, 92.156863%)" stroke-opacity="1" stroke-miterlimit="10" d="M 109.675781 218.847656 L 109.675781 23.957031 "/>
</g>
<g clip-path="url(#clip-14)">
<path fill="none" stroke-width="1.066978" stroke-linecap="butt" stroke-linejoin="round" stroke="rgb(92.156863%, 92.156863%, 92.156863%)" stroke-opacity="1" stroke-miterlimit="10" d="M 169.945312 218.847656 L 169.945312 23.957031 "/>
</g>
<g clip-path="url(#clip-15)">
<path fill="none" stroke-width="1.066978" stroke-linecap="butt" stroke-linejoin="round" stroke="rgb(92.156863%, 92.156863%, 92.156863%)" stroke-opacity="1" stroke-miterlimit="10" d="M 230.210938 218.847656 L 230.210938 23.957031 "/>
</g>
<g clip-path="url(#clip-16)">
<path fill="none" stroke-width="1.066978" stroke-linecap="butt" stroke-linejoin="round" stroke="rgb(92.156863%, 92.156863%, 92.156863%)" stroke-opacity="1" stroke-miterlimit="10" d="M 290.476562 218.847656 L 290.476562 23.957031 "/>
</g>
<path fill="none" stroke-width="2.133957" stroke-linecap="butt" stroke-linejoin="round" stroke="rgb(97.254902%, 46.27451%, 42.745098%)" stroke-opacity="1" stroke-miterlimit="10" d="M 49.410156 43.476562 L 61.460938 41.394531 L 73.515625 47.785156 L 85.570312 51.949219 L 97.625 55.429688 L 109.675781 52.875 L 121.730469 58.113281 L 133.785156 56.6875 L 145.835938 58.140625 L 157.890625 60.492188 L 169.945312 52.605469 L 181.996094 53.484375 L 194.050781 52.757812 L 206.105469 49.847656 L 218.15625 49.4375 L 230.210938 50.738281 L 242.265625 48.289062 L 254.316406 47.539062 L 266.371094 42.03125 L 278.425781 37.96875 L 290.476562 33.539062 L 302.53125 39.816406 L 314.585938 32.816406 "/>
<path fill="none" stroke-width="2.133957" stroke-linecap="butt" stroke-linejoin="round" stroke="rgb(89.019608%, 53.72549%, 0%)" stroke-opacity="1" stroke-miterlimit="10" d="M 49.410156 182.769531 L 61.460938 182.328125 L 73.515625 183.179688 L 85.570312 179.4375 L 97.625 178.195312 L 109.675781 178.117188 L 121.730469 177.789062 L 133.785156 179.625 L 145.835938 185.042969 L 157.890625 185.449219 L 169.945312 179.789062 L 181.996094 182.21875 L 194.050781 182.675781 L 206.105469 182.410156 L 218.15625 183.808594 L 230.210938 184.457031 L 242.265625 182.980469 L 254.316406 186.445312 L 266.371094 185.234375 L 278.425781 186.730469 L 290.476562 186.003906 L 302.53125 185.59375 L 314.585938 189.597656 "/>
<path fill="none" stroke-width="2.133957" stroke-linecap="butt" stroke-linejoin="round" stroke="rgb(76.862745%, 60.392157%, 0%)" stroke-opacity="1" stroke-miterlimit="10" d="M 49.410156 171.167969 L 61.460938 171.417969 L 73.515625 181.042969 L 85.570312 180.214844 L 97.625 178.738281 L 109.675781 177.410156 L 121.730469 177.636719 L 133.785156 178.273438 L 145.835938 176.613281 L 157.890625 175.765625 L 169.945312 171.242188 L 181.996094 173.550781 L 194.050781 172.691406 L 206.105469 172.609375 L 218.15625 173.503906 L 230.210938 173.402344 L 242.265625 171.777344 L 254.316406 172.9375 L 266.371094 169.335938 L 278.425781 171.53125 L 290.476562 175.398438 L 302.53125 174.929688 L 314.585938 178.484375 "/>
<path fill="none" stroke-width="2.133957" stroke-linecap="butt" stroke-linejoin="round" stroke="rgb(60%, 65.882353%, 0%)" stroke-opacity="1" stroke-miterlimit="10" d="M 49.410156 182.03125 L 61.460938 182.054688 L 73.515625 182.292969 L 85.570312 181.644531 L 97.625 182.046875 L 109.675781 180.265625 L 121.730469 179.410156 L 133.785156 176.511719 L 145.835938 175.863281 L 157.890625 176.023438 L 169.945312 167.765625 L 181.996094 169.359375 L 194.050781 169.125 L 206.105469 169.5 L 218.15625 167.972656 L 230.210938 167.9375 L 242.265625 171.667969 L 254.316406 173.921875 L 266.371094 177.449219 L 278.425781 179.507812 L 290.476562 184.019531 L 302.53125 177.53125 L 314.585938 175.160156 "/>
<path fill="none" stroke-width="2.133957" stroke-linecap="butt" stroke-linejoin="round" stroke="rgb(32.54902%, 70.588235%, 0%)" stroke-opacity="1" stroke-miterlimit="10" d="M 49.410156 186.792969 L 61.460938 189.910156 L 73.515625 188.945312 L 85.570312 183.832031 L 97.625 183.082031 L 109.675781 182.789062 L 121.730469 180.589844 L 133.785156 180.5 L 145.835938 178.539062 L 157.890625 178.152344 L 169.945312 179.960938 L 181.996094 177.09375 L 194.050781 178.136719 L 206.105469 176.648438 L 218.15625 176.117188 L 230.210938 172.898438 L 242.265625 172 L 254.316406 172.148438 L 266.371094 169.273438 L 278.425781 172.101562 L 290.476562 171.488281 L 302.53125 170.875 L 314.585938 175.960938 "/>
<path fill="none" stroke-width="2.133957" stroke-linecap="butt" stroke-linejoin="round" stroke="rgb(0%, 73.72549%, 33.72549%)" stroke-opacity="1" stroke-miterlimit="10" d="M 49.410156 179.226562 L 61.460938 182.96875 L 73.515625 183.429688 L 85.570312 183.808594 L 97.625 181.851562 L 109.675781 182.984375 L 121.730469 182.847656 L 133.785156 180.003906 L 145.835938 176.050781 L 157.890625 176.566406 L 169.945312 174.121094 L 181.996094 173.109375 L 194.050781 171.636719 L 206.105469 171.839844 L 218.15625 173.472656 L 230.210938 174.683594 L 242.265625 170.644531 L 254.316406 172.214844 L 266.371094 170.550781 L 278.425781 170.953125 L 290.476562 171.464844 L 302.53125 169.230469 L 314.585938 164.875 "/>
<path fill="none" stroke-width="2.133957" stroke-linecap="butt" stroke-linejoin="round" stroke="rgb(0%, 75.294118%, 58.039216%)" stroke-opacity="1" stroke-miterlimit="10" d="M 49.410156 188.171875 L 61.460938 188.527344 L 73.515625 190.992188 L 85.570312 189.136719 L 97.625 188.714844 L 109.675781 187.46875 L 121.730469 183.777344 L 133.785156 184.957031 L 145.835938 184.414062 L 157.890625 184.574219 L 169.945312 184.371094 L 181.996094 182.445312 L 194.050781 182.296875 L 206.105469 181.394531 L 218.15625 181.632812 L 230.210938 176.617188 L 242.265625 176.613281 L 254.316406 175.230469 L 266.371094 171.597656 L 278.425781 170.074219 L 290.476562 173.425781 L 302.53125 176.808594 L 314.585938 176.902344 "/>
<path fill="none" stroke-width="2.133957" stroke-linecap="butt" stroke-linejoin="round" stroke="rgb(0%, 74.901961%, 76.862745%)" stroke-opacity="1" stroke-miterlimit="10" d="M 49.410156 180.46875 L 61.460938 182.648438 L 73.515625 181.078125 L 85.570312 179.554688 L 97.625 178.3125 L 109.675781 174.765625 L 121.730469 176.707031 L 133.785156 177.378906 L 145.835938 178.519531 L 157.890625 175.871094 L 169.945312 171.355469 L 181.996094 171.191406 L 194.050781 172.632812 L 206.105469 173.652344 L 218.15625 171.382812 L 230.210938 172.320312 L 242.265625 173.222656 L 254.316406 172.886719 L 266.371094 171.71875 L 278.425781 173.648438 L 290.476562 178.375 L 302.53125 178.039062 L 314.585938 171.542969 "/>
<path fill="none" stroke-width="2.133957" stroke-linecap="butt" stroke-linejoin="round" stroke="rgb(0%, 71.372549%, 92.156863%)" stroke-opacity="1" stroke-miterlimit="10" d="M 49.410156 177.949219 L 61.460938 174.546875 L 73.515625 176.894531 L 85.570312 176.78125 L 97.625 177.480469 L 109.675781 176.929688 L 121.730469 175.097656 L 133.785156 176.242188 L 145.835938 178.515625 L 157.890625 176.316406 L 169.945312 170.9375 L 181.996094 172.695312 L 194.050781 172.089844 L 206.105469 175.601562 L 218.15625 177.628906 L 230.210938 175.910156 L 242.265625 173.894531 L 254.316406 173.152344 L 266.371094 171.648438 L 278.425781 172.382812 L 290.476562 174.039062 L 302.53125 174.4375 L 314.585938 174.398438 "/>
<path fill="none" stroke-width="2.133957" stroke-linecap="butt" stroke-linejoin="round" stroke="rgb(2.352941%, 64.313725%, 100%)" stroke-opacity="1" stroke-miterlimit="10" d="M 49.410156 165.582031 L 61.460938 161.835938 L 73.515625 164.765625 L 85.570312 168.539062 L 97.625 171.640625 L 109.675781 166.726562 L 121.730469 158.980469 L 133.785156 163.546875 L 145.835938 154.824219 L 157.890625 152.15625 L 169.945312 148.410156 L 181.996094 148.085938 L 194.050781 143.464844 L 206.105469 141.054688 L 218.15625 139.804688 L 230.210938 138.617188 L 242.265625 137.226562 L 254.316406 140.121094 L 266.371094 136.402344 L 278.425781 136.765625 L 290.476562 147.941406 L 302.53125 151.011719 L 314.585938 146.9375 "/>
<path fill="none" stroke-width="2.133957" stroke-linecap="butt" stroke-linejoin="round" stroke="rgb(64.705882%, 54.117647%, 100%)" stroke-opacity="1" stroke-miterlimit="10" d="M 49.410156 153.988281 L 61.460938 154.6875 L 73.515625 157.140625 L 85.570312 155.363281 L 97.625 155.347656 L 109.675781 155.675781 L 121.730469 152.660156 L 133.785156 153.902344 L 145.835938 149.75 L 157.890625 150.074219 L 169.945312 143.34375 L 181.996094 146.386719 L 194.050781 142.988281 L 206.105469 144.902344 L 218.15625 144.921875 L 230.210938 143.835938 L 242.265625 141.765625 L 254.316406 140.039062 L 266.371094 135.941406 L 278.425781 135.460938 L 290.476562 138.617188 L 302.53125 137.085938 L 314.585938 135.167969 "/>
<path fill="none" stroke-width="2.133957" stroke-linecap="butt" stroke-linejoin="round" stroke="rgb(87.45098%, 43.921569%, 97.254902%)" stroke-opacity="1" stroke-miterlimit="10" d="M 49.410156 182.347656 L 61.460938 180.386719 L 73.515625 183.367188 L 85.570312 183.210938 L 97.625 181.871094 L 109.675781 182.714844 L 121.730469 181.832031 L 133.785156 181.6875 L 145.835938 178.300781 L 157.890625 178.628906 L 169.945312 170.089844 L 181.996094 174.132812 L 194.050781 167.339844 L 206.105469 170.933594 L 218.15625 167.378906 L 230.210938 166.703125 L 242.265625 168.339844 L 254.316406 168.976562 L 266.371094 170.539062 L 278.425781 169.417969 L 290.476562 166.933594 L 302.53125 128.410156 L 314.585938 108.546875 "/>
<path fill="none" stroke-width="2.133957" stroke-linecap="butt" stroke-linejoin="round" stroke="rgb(98.431373%, 38.039216%, 84.313725%)" stroke-opacity="1" stroke-miterlimit="10" d="M 49.410156 156.597656 L 61.460938 147.300781 L 73.515625 148.347656 L 85.570312 153.425781 L 97.625 147.4375 L 109.675781 152.632812 L 121.730469 150.03125 L 133.785156 148.597656 L 145.835938 168.113281 L 157.890625 166.703125 L 169.945312 166.859375 L 181.996094 156.535156 L 194.050781 166.125 L 206.105469 160.769531 L 218.15625 166.339844 L 230.210938 174.464844 L 242.265625 171.273438 L 254.316406 168.488281 L 266.371094 152.085938 L 278.425781 151.953125 L 290.476562 154.398438 L 302.53125 151.898438 L 314.585938 161.164062 "/>
<path fill="none" stroke-width="2.133957" stroke-linecap="butt" stroke-linejoin="round" stroke="rgb(100%, 40%, 65.882353%)" stroke-opacity="1" stroke-miterlimit="10" d="M 49.410156 206.507812 L 61.460938 209.992188 L 73.515625 209.25 L 85.570312 203.925781 L 97.625 200.519531 L 109.675781 199.574219 L 121.730469 199.359375 L 133.785156 193.769531 L 145.835938 194.636719 L 157.890625 196.402344 L 169.945312 191.558594 L 181.996094 190.988281 L 194.050781 191.695312 L 206.105469 189.882812 L 218.15625 184.929688 L 230.210938 179.65625 L 242.265625 180.71875 L 254.316406 175.625 L 266.371094 177.273438 L 278.425781 178.246094 L 290.476562 173.90625 L 302.53125 187.992188 L 314.585938 178.738281 "/>
<g fill="rgb(30.196078%, 30.196078%, 30.196078%)" fill-opacity="1">
<use xlink:href="#glyph-0-1" x="19.21875" y="169.577148"/>
<use xlink:href="#glyph-0-2" x="24.21875" y="169.577148"/>
<use xlink:href="#glyph-0-3" x="26.21875" y="169.577148"/>
</g>
<g fill="rgb(30.196078%, 30.196078%, 30.196078%)" fill-opacity="1">
<use xlink:href="#glyph-0-1" x="19.21875" y="112.862305"/>
<use xlink:href="#glyph-0-2" x="24.21875" y="112.862305"/>
<use xlink:href="#glyph-0-4" x="26.21875" y="112.862305"/>
</g>
<g fill="rgb(30.196078%, 30.196078%, 30.196078%)" fill-opacity="1">
<use xlink:href="#glyph-0-1" x="19.21875" y="56.147461"/>
<use xlink:href="#glyph-0-2" x="24.21875" y="56.147461"/>
<use xlink:href="#glyph-0-5" x="26.21875" y="56.147461"/>
</g>
<g fill="rgb(30.196078%, 30.196078%, 30.196078%)" fill-opacity="1">
<use xlink:href="#glyph-0-4" x="39.410156" y="230.557617"/>
<use xlink:href="#glyph-0-1" x="44.410156" y="230.557617"/>
<use xlink:href="#glyph-0-1" x="49.410156" y="230.557617"/>
<use xlink:href="#glyph-0-1" x="54.410156" y="230.557617"/>
</g>
<g fill="rgb(30.196078%, 30.196078%, 30.196078%)" fill-opacity="1">
<use xlink:href="#glyph-0-4" x="99.675781" y="230.557617"/>
<use xlink:href="#glyph-0-1" x="104.675781" y="230.557617"/>
<use xlink:href="#glyph-0-1" x="109.675781" y="230.557617"/>
<use xlink:href="#glyph-0-6" x="114.675781" y="230.557617"/>
</g>
<g fill="rgb(30.196078%, 30.196078%, 30.196078%)" fill-opacity="1">
<use xlink:href="#glyph-0-4" x="159.945312" y="230.557617"/>
<use xlink:href="#glyph-0-1" x="164.945312" y="230.557617"/>
<use xlink:href="#glyph-0-3" x="169.945312" y="230.557617"/>
<use xlink:href="#glyph-0-1" x="174.945312" y="230.557617"/>
</g>
<g fill="rgb(30.196078%, 30.196078%, 30.196078%)" fill-opacity="1">
<use xlink:href="#glyph-0-4" x="220.210938" y="230.557617"/>
<use xlink:href="#glyph-0-1" x="225.210938" y="230.557617"/>
<use xlink:href="#glyph-0-3" x="230.210938" y="230.557617"/>
<use xlink:href="#glyph-0-6" x="235.210938" y="230.557617"/>
</g>
<g fill="rgb(30.196078%, 30.196078%, 30.196078%)" fill-opacity="1">
<use xlink:href="#glyph-0-4" x="280.476562" y="230.557617"/>
<use xlink:href="#glyph-0-1" x="285.476562" y="230.557617"/>
<use xlink:href="#glyph-0-4" x="290.476562" y="230.557617"/>
<use xlink:href="#glyph-0-1" x="295.476562" y="230.557617"/>
</g>
<g fill="rgb(0%, 0%, 0%)" fill-opacity="1">
<use xlink:href="#glyph-1-1" x="176.496094" y="242.990234"/>
<use xlink:href="#glyph-1-2" x="183.496094" y="242.990234"/>
</g>
<g fill="rgb(0%, 0%, 0%)" fill-opacity="1">
<use xlink:href="#glyph-2-1" x="12.951172" y="157.902344"/>
<use xlink:href="#glyph-2-2" x="12.951172" y="148.902344"/>
<use xlink:href="#glyph-2-3" x="12.951172" y="146.902344"/>
<use xlink:href="#glyph-2-2" x="12.951172" y="140.902344"/>
<use xlink:href="#glyph-2-4" x="12.951172" y="138.902344"/>
<use xlink:href="#glyph-2-5" x="12.951172" y="134.902344"/>
<use xlink:href="#glyph-2-6" x="12.951172" y="128.902344"/>
<use xlink:href="#glyph-2-7" x="12.951172" y="122.902344"/>
<use xlink:href="#glyph-2-8" x="12.951172" y="116.902344"/>
<use xlink:href="#glyph-2-9" x="12.951172" y="113.902344"/>
<use xlink:href="#glyph-2-10" x="12.951172" y="107.902344"/>
<use xlink:href="#glyph-2-2" x="12.951172" y="101.902344"/>
<use xlink:href="#glyph-2-7" x="12.951172" y="99.902344"/>
<use xlink:href="#glyph-2-3" x="12.951172" y="93.902344"/>
<use xlink:href="#glyph-2-11" x="12.951172" y="87.902344"/>
</g>
<g fill="rgb(0%, 0%, 0%)" fill-opacity="1">
<use xlink:href="#glyph-1-3" x="344.28125" y="1.173828"/>
<use xlink:href="#glyph-1-4" x="350.28125" y="1.173828"/>
</g>
<path fill="none" stroke-width="2.133957" stroke-linecap="butt" stroke-linejoin="round" stroke="rgb(97.254902%, 46.27451%, 42.745098%)" stroke-opacity="1" stroke-miterlimit="10" d="M 346.007812 17.324219 L 359.832031 17.324219 "/>
<path fill="none" stroke-width="2.133957" stroke-linecap="butt" stroke-linejoin="round" stroke="rgb(89.019608%, 53.72549%, 0%)" stroke-opacity="1" stroke-miterlimit="10" d="M 346.007812 34.605469 L 359.832031 34.605469 "/>
<path fill="none" stroke-width="2.133957" stroke-linecap="butt" stroke-linejoin="round" stroke="rgb(76.862745%, 60.392157%, 0%)" stroke-opacity="1" stroke-miterlimit="10" d="M 346.007812 51.882812 L 359.832031 51.882812 "/>
<path fill="none" stroke-width="2.133957" stroke-linecap="butt" stroke-linejoin="round" stroke="rgb(60%, 65.882353%, 0%)" stroke-opacity="1" stroke-miterlimit="10" d="M 346.007812 69.164062 L 359.832031 69.164062 "/>
<path fill="none" stroke-width="2.133957" stroke-linecap="butt" stroke-linejoin="round" stroke="rgb(32.54902%, 70.588235%, 0%)" stroke-opacity="1" stroke-miterlimit="10" d="M 346.007812 86.445312 L 359.832031 86.445312 "/>
<path fill="none" stroke-width="2.133957" stroke-linecap="butt" stroke-linejoin="round" stroke="rgb(0%, 73.72549%, 33.72549%)" stroke-opacity="1" stroke-miterlimit="10" d="M 346.007812 103.722656 L 359.832031 103.722656 "/>
<path fill="none" stroke-width="2.133957" stroke-linecap="butt" stroke-linejoin="round" stroke="rgb(0%, 75.294118%, 58.039216%)" stroke-opacity="1" stroke-miterlimit="10" d="M 346.007812 121.003906 L 359.832031 121.003906 "/>
<path fill="none" stroke-width="2.133957" stroke-linecap="butt" stroke-linejoin="round" stroke="rgb(0%, 74.901961%, 76.862745%)" stroke-opacity="1" stroke-miterlimit="10" d="M 346.007812 138.285156 L 359.832031 138.285156 "/>
<path fill="none" stroke-width="2.133957" stroke-linecap="butt" stroke-linejoin="round" stroke="rgb(0%, 71.372549%, 92.156863%)" stroke-opacity="1" stroke-miterlimit="10" d="M 346.007812 155.5625 L 359.832031 155.5625 "/>
<path fill="none" stroke-width="2.133957" stroke-linecap="butt" stroke-linejoin="round" stroke="rgb(2.352941%, 64.313725%, 100%)" stroke-opacity="1" stroke-miterlimit="10" d="M 346.007812 172.84375 L 359.832031 172.84375 "/>
<path fill="none" stroke-width="2.133957" stroke-linecap="butt" stroke-linejoin="round" stroke="rgb(64.705882%, 54.117647%, 100%)" stroke-opacity="1" stroke-miterlimit="10" d="M 346.007812 190.125 L 359.832031 190.125 "/>
<path fill="none" stroke-width="2.133957" stroke-linecap="butt" stroke-linejoin="round" stroke="rgb(87.45098%, 43.921569%, 97.254902%)" stroke-opacity="1" stroke-miterlimit="10" d="M 346.007812 207.402344 L 359.832031 207.402344 "/>
<path fill="none" stroke-width="2.133957" stroke-linecap="butt" stroke-linejoin="round" stroke="rgb(98.431373%, 38.039216%, 84.313725%)" stroke-opacity="1" stroke-miterlimit="10" d="M 346.007812 224.683594 L 359.832031 224.683594 "/>
<path fill="none" stroke-width="2.133957" stroke-linecap="butt" stroke-linejoin="round" stroke="rgb(100%, 40%, 65.882353%)" stroke-opacity="1" stroke-miterlimit="10" d="M 346.007812 241.964844 L 359.832031 241.964844 "/>
<g fill="rgb(0%, 0%, 0%)" fill-opacity="1">
<use xlink:href="#glyph-0-7" x="367.042969" y="20.600586"/>
<use xlink:href="#glyph-0-8" x="372.042969" y="20.600586"/>
<use xlink:href="#glyph-0-3" x="378.042969" y="20.600586"/>
</g>
<g fill="rgb(0%, 0%, 0%)" fill-opacity="1">
<use xlink:href="#glyph-0-7" x="367.042969" y="37.881836"/>
<use xlink:href="#glyph-0-8" x="372.042969" y="37.881836"/>
<use xlink:href="#glyph-0-9" x="378.042969" y="37.881836"/>
</g>
<g fill="rgb(0%, 0%, 0%)" fill-opacity="1">
<use xlink:href="#glyph-0-7" x="367.042969" y="55.15918"/>
<use xlink:href="#glyph-0-8" x="372.042969" y="55.15918"/>
<use xlink:href="#glyph-0-10" x="378.042969" y="55.15918"/>
</g>
<g fill="rgb(0%, 0%, 0%)" fill-opacity="1">
<use xlink:href="#glyph-0-7" x="367.042969" y="72.44043"/>
<use xlink:href="#glyph-0-8" x="372.042969" y="72.44043"/>
<use xlink:href="#glyph-0-11" x="378.042969" y="72.44043"/>
</g>
<g fill="rgb(0%, 0%, 0%)" fill-opacity="1">
<use xlink:href="#glyph-0-7" x="367.042969" y="89.72168"/>
<use xlink:href="#glyph-0-8" x="372.042969" y="89.72168"/>
<use xlink:href="#glyph-0-12" x="378.042969" y="89.72168"/>
</g>
<g fill="rgb(0%, 0%, 0%)" fill-opacity="1">
<use xlink:href="#glyph-0-7" x="367.042969" y="106.999023"/>
<use xlink:href="#glyph-0-8" x="372.042969" y="106.999023"/>
<use xlink:href="#glyph-0-7" x="378.042969" y="106.999023"/>
</g>
<g fill="rgb(0%, 0%, 0%)" fill-opacity="1">
<use xlink:href="#glyph-0-7" x="367.042969" y="124.280273"/>
<use xlink:href="#glyph-0-8" x="372.042969" y="124.280273"/>
<use xlink:href="#glyph-0-13" x="378.042969" y="124.280273"/>
</g>
<g fill="rgb(0%, 0%, 0%)" fill-opacity="1">
<use xlink:href="#glyph-0-7" x="367.042969" y="141.561523"/>
<use xlink:href="#glyph-0-8" x="372.042969" y="141.561523"/>
<use xlink:href="#glyph-0-14" x="378.042969" y="141.561523"/>
</g>
<g fill="rgb(0%, 0%, 0%)" fill-opacity="1">
<use xlink:href="#glyph-0-7" x="367.042969" y="158.838867"/>
<use xlink:href="#glyph-0-8" x="372.042969" y="158.838867"/>
<use xlink:href="#glyph-0-15" x="378.042969" y="158.838867"/>
</g>
<g fill="rgb(0%, 0%, 0%)" fill-opacity="1">
<use xlink:href="#glyph-0-7" x="367.042969" y="176.120117"/>
<use xlink:href="#glyph-0-8" x="372.042969" y="176.120117"/>
<use xlink:href="#glyph-0-16" x="378.042969" y="176.120117"/>
</g>
<g fill="rgb(0%, 0%, 0%)" fill-opacity="1">
<use xlink:href="#glyph-0-7" x="367.042969" y="193.401367"/>
<use xlink:href="#glyph-0-8" x="372.042969" y="193.401367"/>
<use xlink:href="#glyph-0-17" x="378.042969" y="193.401367"/>
</g>
<g fill="rgb(0%, 0%, 0%)" fill-opacity="1">
<use xlink:href="#glyph-0-7" x="367.042969" y="210.678711"/>
<use xlink:href="#glyph-0-8" x="372.042969" y="210.678711"/>
<use xlink:href="#glyph-0-18" x="378.042969" y="210.678711"/>
</g>
<g fill="rgb(0%, 0%, 0%)" fill-opacity="1">
<use xlink:href="#glyph-0-7" x="367.042969" y="227.959961"/>
<use xlink:href="#glyph-0-8" x="372.042969" y="227.959961"/>
<use xlink:href="#glyph-0-19" x="378.042969" y="227.959961"/>
</g>
<g fill="rgb(0%, 0%, 0%)" fill-opacity="1">
<use xlink:href="#glyph-0-7" x="367.042969" y="245.241211"/>
<use xlink:href="#glyph-0-8" x="372.042969" y="245.241211"/>
<use xlink:href="#glyph-0-20" x="378.042969" y="245.241211"/>
</g>
<g fill="rgb(0%, 0%, 0%)" fill-opacity="1">
<use xlink:href="#glyph-3-1" x="36.152344" y="14.644531"/>
<use xlink:href="#glyph-3-2" x="46.152344" y="14.644531"/>
<use xlink:href="#glyph-3-3" x="50.152344" y="14.644531"/>
<use xlink:href="#glyph-3-4" x="57.152344" y="14.644531"/>
<use xlink:href="#glyph-3-5" x="60.152344" y="14.644531"/>
<use xlink:href="#glyph-3-6" x="67.152344" y="14.644531"/>
<use xlink:href="#glyph-3-4" x="70.152344" y="14.644531"/>
<use xlink:href="#glyph-3-7" x="73.152344" y="14.644531"/>
<use xlink:href="#glyph-3-8" x="80.152344" y="14.644531"/>
<use xlink:href="#glyph-3-9" x="87.152344" y="14.644531"/>
<use xlink:href="#glyph-3-7" x="94.152344" y="14.644531"/>
<use xlink:href="#glyph-3-10" x="101.152344" y="14.644531"/>
<use xlink:href="#glyph-3-4" x="105.152344" y="14.644531"/>
<use xlink:href="#glyph-3-10" x="108.152344" y="14.644531"/>
<use xlink:href="#glyph-3-11" x="112.152344" y="14.644531"/>
<use xlink:href="#glyph-3-4" x="122.152344" y="14.644531"/>
<use xlink:href="#glyph-3-7" x="125.152344" y="14.644531"/>
<use xlink:href="#glyph-3-4" x="132.152344" y="14.644531"/>
<use xlink:href="#glyph-3-12" x="135.152344" y="14.644531"/>
<use xlink:href="#glyph-3-5" x="139.152344" y="14.644531"/>
<use xlink:href="#glyph-3-13" x="146.152344" y="14.644531"/>
<use xlink:href="#glyph-3-9" x="153.152344" y="14.644531"/>
<use xlink:href="#glyph-3-14" x="160.152344" y="14.644531"/>
<use xlink:href="#glyph-3-15" x="164.152344" y="14.644531"/>
<use xlink:href="#glyph-3-16" x="171.152344" y="14.644531"/>
<use xlink:href="#glyph-3-4" x="178.152344" y="14.644531"/>
<use xlink:href="#glyph-3-9" x="181.152344" y="14.644531"/>
<use xlink:href="#glyph-3-7" x="188.152344" y="14.644531"/>
<use xlink:href="#glyph-3-2" x="195.152344" y="14.644531"/>
<use xlink:href="#glyph-3-9" x="199.152344" y="14.644531"/>
<use xlink:href="#glyph-3-7" x="206.152344" y="14.644531"/>
<use xlink:href="#glyph-3-10" x="213.152344" y="14.644531"/>
<use xlink:href="#glyph-3-14" x="217.152344" y="14.644531"/>
<use xlink:href="#glyph-3-13" x="221.152344" y="14.644531"/>
<use xlink:href="#glyph-3-17" x="228.152344" y="14.644531"/>
<use xlink:href="#glyph-3-10" x="232.152344" y="14.644531"/>
<use xlink:href="#glyph-3-18" x="236.152344" y="14.644531"/>
<use xlink:href="#glyph-3-1" x="246.152344" y="14.644531"/>
<use xlink:href="#glyph-3-19" x="256.152344" y="14.644531"/>
<use xlink:href="#glyph-3-20" x="264.152344" y="14.644531"/>
<use xlink:href="#glyph-3-21" x="273.152344" y="14.644531"/>
<use xlink:href="#glyph-3-12" x="280.152344" y="14.644531"/>
<use xlink:href="#glyph-3-17" x="284.152344" y="14.644531"/>
<use xlink:href="#glyph-3-9" x="288.152344" y="14.644531"/>
<use xlink:href="#glyph-3-8" x="295.152344" y="14.644531"/>
<use xlink:href="#glyph-3-4" x="302.152344" y="14.644531"/>
<use xlink:href="#glyph-3-13" x="305.152344" y="14.644531"/>
<use xlink:href="#glyph-3-7" x="312.152344" y="14.644531"/>
<use xlink:href="#glyph-3-9" x="319.152344" y="14.644531"/>
<use xlink:href="#glyph-3-7" x="326.152344" y="14.644531"/>
<use xlink:href="#glyph-3-9" x="333.152344" y="14.644531"/>
<use xlink:href="#glyph-3-10" x="340.152344" y="14.644531"/>
<use xlink:href="#glyph-3-4" x="344.152344" y="14.644531"/>
<use xlink:href="#glyph-3-10" x="347.152344" y="14.644531"/>
<use xlink:href="#glyph-3-22" x="351.152344" y="14.644531"/>
<use xlink:href="#glyph-3-17" x="359.152344" y="14.644531"/>
<use xlink:href="#glyph-3-23" x="363.152344" y="14.644531"/>
<use xlink:href="#glyph-3-7" x="370.152344" y="14.644531"/>
<use xlink:href="#glyph-3-5" x="377.152344" y="14.644531"/>
<use xlink:href="#glyph-3-17" x="384.152344" y="14.644531"/>
<use xlink:href="#glyph-3-4" x="388.152344" y="14.644531"/>
<use xlink:href="#glyph-3-5" x="391.152344" y="14.644531"/>
<use xlink:href="#glyph-3-9" x="398.152344" y="14.644531"/>
</g>
</svg>
