<?xml version="1.0" encoding="UTF-8"?>
<svg xmlns="http://www.w3.org/2000/svg" xmlns:xlink="http://www.w3.org/1999/xlink" width="396pt" height="252pt" viewBox="0 0 396 252">
<defs>
<g>
<g id="glyph-0-0">
<path d="M 0.28125 0 L 0.28125 -6.3125 L 5.296875 -6.3125 L 5.296875 0 Z M 4.5 -0.796875 L 4.5 -5.515625 L 1.078125 -5.515625 L 1.078125 -0.796875 Z M 4.5 -0.796875 "/>
</g>
<g id="glyph-0-1">
<path d="M 2.375 -6.15625 C 3.175781 -6.15625 3.753906 -5.828125 4.109375 -5.171875 C 4.378906 -4.660156 4.515625 -3.960938 4.515625 -3.078125 C 4.515625 -2.242188 4.390625 -1.554688 4.140625 -1.015625 C 3.785156 -0.222656 3.195312 0.171875 2.375 0.171875 C 1.632812 0.171875 1.082031 -0.148438 0.71875 -0.796875 C 0.425781 -1.328125 0.28125 -2.046875 0.28125 -2.953125 C 0.28125 -3.648438 0.367188 -4.25 0.546875 -4.75 C 0.878906 -5.6875 1.488281 -6.15625 2.375 -6.15625 Z M 2.375 -0.53125 C 2.769531 -0.53125 3.085938 -0.707031 3.328125 -1.0625 C 3.566406 -1.425781 3.6875 -2.085938 3.6875 -3.046875 C 3.6875 -3.753906 3.597656 -4.332031 3.421875 -4.78125 C 3.253906 -5.226562 2.921875 -5.453125 2.421875 -5.453125 C 1.972656 -5.453125 1.640625 -5.238281 1.421875 -4.8125 C 1.210938 -4.382812 1.109375 -3.753906 1.109375 -2.921875 C 1.109375 -2.296875 1.175781 -1.789062 1.3125 -1.40625 C 1.519531 -0.820312 1.875 -0.53125 2.375 -0.53125 Z M 2.375 -0.53125 "/>
</g>
<g id="glyph-0-2">
<path d="M 1.09375 -1.5625 C 1.132812 -1.125 1.335938 -0.820312 1.703125 -0.65625 C 1.878906 -0.570312 2.09375 -0.53125 2.34375 -0.53125 C 2.800781 -0.53125 3.140625 -0.675781 3.359375 -0.96875 C 3.578125 -1.257812 3.6875 -1.582031 3.6875 -1.9375 C 3.6875 -2.363281 3.554688 -2.691406 3.296875 -2.921875 C 3.035156 -3.160156 2.71875 -3.28125 2.34375 -3.28125 C 2.082031 -3.28125 1.851562 -3.226562 1.65625 -3.125 C 1.46875 -3.019531 1.304688 -2.878906 1.171875 -2.703125 L 0.5 -2.734375 L 0.96875 -6.046875 L 4.171875 -6.046875 L 4.171875 -5.296875 L 1.5625 -5.296875 L 1.296875 -3.59375 C 1.429688 -3.695312 1.566406 -3.773438 1.703125 -3.828125 C 1.929688 -3.929688 2.195312 -3.984375 2.5 -3.984375 C 3.0625 -3.984375 3.535156 -3.800781 3.921875 -3.4375 C 4.316406 -3.070312 4.515625 -2.609375 4.515625 -2.046875 C 4.515625 -1.460938 4.332031 -0.945312 3.96875 -0.5 C 3.613281 -0.0625 3.046875 0.15625 2.265625 0.15625 C 1.753906 0.15625 1.304688 0.0117188 0.921875 -0.265625 C 0.546875 -0.546875 0.332031 -0.976562 0.28125 -1.5625 Z M 1.09375 -1.5625 "/>
</g>
<g id="glyph-0-3">
<path d="M 0.84375 -4.359375 L 0.84375 -4.953125 C 1.394531 -5.003906 1.78125 -5.09375 2 -5.21875 C 2.226562 -5.34375 2.394531 -5.644531 2.5 -6.125 L 3.109375 -6.125 L 3.109375 0 L 2.296875 0 L 2.296875 -4.359375 Z M 0.84375 -4.359375 "/>
</g>
<g id="glyph-0-4">
<path d="M 0.359375 -2.84375 L 2.515625 -2.84375 L 2.515625 -2.046875 L 0.359375 -2.046875 Z M 0.359375 -2.84375 "/>
</g>
<g id="glyph-0-5">
<path d="M 0.28125 0 C 0.300781 -0.53125 0.40625 -0.988281 0.59375 -1.375 C 0.789062 -1.769531 1.164062 -2.128906 1.71875 -2.453125 L 2.546875 -2.921875 C 2.910156 -3.140625 3.164062 -3.328125 3.3125 -3.484375 C 3.550781 -3.710938 3.671875 -3.984375 3.671875 -4.296875 C 3.671875 -4.648438 3.5625 -4.929688 3.34375 -5.140625 C 3.132812 -5.359375 2.847656 -5.46875 2.484375 -5.46875 C 1.960938 -5.46875 1.597656 -5.265625 1.390625 -4.859375 C 1.285156 -4.648438 1.226562 -4.351562 1.21875 -3.96875 L 0.421875 -3.96875 C 0.429688 -4.5 0.53125 -4.9375 0.71875 -5.28125 C 1.050781 -5.875 1.644531 -6.171875 2.5 -6.171875 C 3.195312 -6.171875 3.707031 -5.976562 4.03125 -5.59375 C 4.363281 -5.21875 4.53125 -4.796875 4.53125 -4.328125 C 4.53125 -3.835938 4.351562 -3.414062 4 -3.0625 C 3.800781 -2.863281 3.441406 -2.617188 2.921875 -2.328125 L 2.34375 -2 C 2.0625 -1.84375 1.835938 -1.695312 1.671875 -1.5625 C 1.390625 -1.3125 1.210938 -1.035156 1.140625 -0.734375 L 4.5 -0.734375 L 4.5 0 Z M 0.28125 0 "/>
</g>
<g id="glyph-0-6">
<path d="M 2.484375 -4.703125 C 2.804688 -4.703125 3.117188 -4.625 3.421875 -4.46875 C 3.734375 -4.320312 3.96875 -4.125 4.125 -3.875 C 4.28125 -3.644531 4.382812 -3.375 4.4375 -3.0625 C 4.488281 -2.851562 4.515625 -2.515625 4.515625 -2.046875 L 1.140625 -2.046875 C 1.148438 -1.585938 1.257812 -1.210938 1.46875 -0.921875 C 1.675781 -0.640625 1.992188 -0.5 2.421875 -0.5 C 2.828125 -0.5 3.148438 -0.632812 3.390625 -0.90625 C 3.523438 -1.0625 3.625 -1.238281 3.6875 -1.4375 L 4.453125 -1.4375 C 4.429688 -1.269531 4.363281 -1.082031 4.25 -0.875 C 4.132812 -0.664062 4.003906 -0.5 3.859375 -0.375 C 3.628906 -0.144531 3.34375 0.0078125 3 0.09375 C 2.8125 0.132812 2.597656 0.15625 2.359375 0.15625 C 1.785156 0.15625 1.300781 -0.0507812 0.90625 -0.46875 C 0.507812 -0.882812 0.3125 -1.46875 0.3125 -2.21875 C 0.3125 -2.945312 0.507812 -3.539062 0.90625 -4 C 1.3125 -4.46875 1.835938 -4.703125 2.484375 -4.703125 Z M 3.71875 -2.671875 C 3.6875 -3.003906 3.613281 -3.269531 3.5 -3.46875 C 3.28125 -3.84375 2.925781 -4.03125 2.4375 -4.03125 C 2.082031 -4.03125 1.785156 -3.898438 1.546875 -3.640625 C 1.304688 -3.390625 1.175781 -3.066406 1.15625 -2.671875 Z M 2.40625 -4.71875 Z M 2.40625 -4.71875 "/>
</g>
<g id="glyph-0-7">
<path d="M 0.390625 -1.875 L 0.390625 -2.609375 L 2.265625 -2.609375 L 2.265625 -4.484375 L 3 -4.484375 L 3 -2.609375 L 4.875 -2.609375 L 4.875 -1.875 L 3 -1.875 L 3 0 L 2.265625 0 L 2.265625 -1.875 Z M 0.390625 -1.875 "/>
</g>
<g id="glyph-1-0">
<path d="M 0.359375 0 L 0.359375 -7.890625 L 6.625 -7.890625 L 6.625 0 Z M 5.625 -0.984375 L 5.625 -6.90625 L 1.34375 -6.90625 L 1.34375 -0.984375 Z M 5.625 -0.984375 "/>
</g>
<g id="glyph-1-1">
<path d="M 1.328125 -2.8125 C 1.328125 -2.195312 1.457031 -1.679688 1.71875 -1.265625 C 1.976562 -0.847656 2.394531 -0.640625 2.96875 -0.640625 C 3.414062 -0.640625 3.78125 -0.832031 4.0625 -1.21875 C 4.351562 -1.601562 4.5 -2.15625 4.5 -2.875 C 4.5 -3.601562 4.347656 -4.140625 4.046875 -4.484375 C 3.753906 -4.835938 3.390625 -5.015625 2.953125 -5.015625 C 2.472656 -5.015625 2.082031 -4.828125 1.78125 -4.453125 C 1.476562 -4.078125 1.328125 -3.53125 1.328125 -2.8125 Z M 2.78125 -5.859375 C 3.21875 -5.859375 3.585938 -5.765625 3.890625 -5.578125 C 4.054688 -5.472656 4.25 -5.285156 4.46875 -5.015625 L 4.46875 -7.921875 L 5.390625 -7.921875 L 5.390625 0 L 4.53125 0 L 4.53125 -0.796875 C 4.300781 -0.441406 4.03125 -0.1875 3.71875 -0.03125 C 3.414062 0.121094 3.066406 0.203125 2.671875 0.203125 C 2.023438 0.203125 1.46875 -0.0625 1 -0.59375 C 0.53125 -1.132812 0.296875 -1.851562 0.296875 -2.75 C 0.296875 -3.59375 0.507812 -4.320312 0.9375 -4.9375 C 1.363281 -5.550781 1.976562 -5.859375 2.78125 -5.859375 Z M 2.78125 -5.859375 "/>
</g>
<g id="glyph-1-2">
<path d="M 0.703125 -5.71875 L 1.6875 -5.71875 L 1.6875 0 L 0.703125 0 Z M 0.703125 -7.890625 L 1.6875 -7.890625 L 1.6875 -6.796875 L 0.703125 -6.796875 Z M 0.703125 -7.890625 "/>
</g>
<g id="glyph-1-3">
<path d="M 0.953125 -6.625 C 0.960938 -7.03125 1.03125 -7.328125 1.15625 -7.515625 C 1.382812 -7.835938 1.820312 -8 2.46875 -8 C 2.53125 -8 2.59375 -8 2.65625 -8 C 2.71875 -8 2.789062 -7.992188 2.875 -7.984375 L 2.875 -7.09375 C 2.769531 -7.101562 2.695312 -7.109375 2.65625 -7.109375 C 2.613281 -7.109375 2.570312 -7.109375 2.53125 -7.109375 C 2.238281 -7.109375 2.0625 -7.03125 2 -6.875 C 1.945312 -6.726562 1.921875 -6.34375 1.921875 -5.71875 L 2.875 -5.71875 L 2.875 -4.96875 L 1.90625 -4.96875 L 1.90625 0 L 0.953125 0 L 0.953125 -4.96875 L 0.15625 -4.96875 L 0.15625 -5.71875 L 0.953125 -5.71875 Z M 0.953125 -6.625 "/>
</g>
<g id="glyph-1-4">
<path d="M 0 1.375 L 0 0.828125 L 6.125 0.828125 L 6.125 1.375 Z M 0 1.375 "/>
</g>
<g id="glyph-1-5">
<path d="M 2.734375 -5.859375 C 3.191406 -5.859375 3.585938 -5.742188 3.921875 -5.515625 C 4.097656 -5.390625 4.285156 -5.207031 4.484375 -4.96875 L 4.484375 -5.703125 L 5.375 -5.703125 L 5.375 -0.46875 C 5.375 0.257812 5.265625 0.835938 5.046875 1.265625 C 4.648438 2.046875 3.894531 2.4375 2.78125 2.4375 C 2.15625 2.4375 1.628906 2.296875 1.203125 2.015625 C 0.785156 1.734375 0.550781 1.300781 0.5 0.71875 L 1.484375 0.71875 C 1.535156 0.96875 1.628906 1.164062 1.765625 1.3125 C 1.984375 1.53125 2.328125 1.640625 2.796875 1.640625 C 3.535156 1.640625 4.019531 1.375 4.25 0.84375 C 4.382812 0.539062 4.445312 -0.00390625 4.4375 -0.796875 C 4.25 -0.503906 4.015625 -0.285156 3.734375 -0.140625 C 3.460938 -0.00390625 3.109375 0.0625 2.671875 0.0625 C 2.046875 0.0625 1.5 -0.15625 1.03125 -0.59375 C 0.5625 -1.03125 0.328125 -1.757812 0.328125 -2.78125 C 0.328125 -3.75 0.5625 -4.503906 1.03125 -5.046875 C 1.5 -5.585938 2.066406 -5.859375 2.734375 -5.859375 Z M 4.484375 -2.90625 C 4.484375 -3.613281 4.332031 -4.140625 4.03125 -4.484375 C 3.738281 -4.828125 3.367188 -5 2.921875 -5 C 2.234375 -5 1.765625 -4.679688 1.515625 -4.046875 C 1.390625 -3.703125 1.328125 -3.253906 1.328125 -2.703125 C 1.328125 -2.054688 1.457031 -1.5625 1.71875 -1.21875 C 1.976562 -0.882812 2.332031 -0.71875 2.78125 -0.71875 C 3.46875 -0.71875 3.957031 -1.03125 4.25 -1.65625 C 4.40625 -2.007812 4.484375 -2.425781 4.484375 -2.90625 Z M 2.859375 -5.890625 Z M 2.859375 -5.890625 "/>
</g>
<g id="glyph-1-6">
<path d="M 3.140625 -0.65625 C 3.585938 -0.65625 3.957031 -0.84375 4.25 -1.21875 C 4.550781 -1.59375 4.703125 -2.15625 4.703125 -2.90625 C 4.703125 -3.363281 4.640625 -3.757812 4.515625 -4.09375 C 4.265625 -4.726562 3.804688 -5.046875 3.140625 -5.046875 C 2.460938 -5.046875 2.003906 -4.710938 1.765625 -4.046875 C 1.628906 -3.679688 1.5625 -3.222656 1.5625 -2.671875 C 1.5625 -2.234375 1.628906 -1.859375 1.765625 -1.546875 C 2.015625 -0.953125 2.472656 -0.65625 3.140625 -0.65625 Z M 0.640625 -5.71875 L 1.578125 -5.71875 L 1.578125 -4.96875 C 1.765625 -5.226562 1.972656 -5.425781 2.203125 -5.5625 C 2.535156 -5.78125 2.921875 -5.890625 3.359375 -5.890625 C 4.003906 -5.890625 4.554688 -5.640625 5.015625 -5.140625 C 5.472656 -4.640625 5.703125 -3.925781 5.703125 -3 C 5.703125 -1.75 5.375 -0.851562 4.71875 -0.3125 C 4.300781 0.0195312 3.816406 0.1875 3.265625 0.1875 C 2.828125 0.1875 2.460938 0.0898438 2.171875 -0.09375 C 2.003906 -0.195312 1.8125 -0.378906 1.59375 -0.640625 L 1.59375 2.296875 L 0.640625 2.296875 Z M 0.640625 -5.71875 "/>
</g>
<g id="glyph-1-7">
<path d="M 3.109375 -5.875 C 3.515625 -5.875 3.90625 -5.78125 4.28125 -5.59375 C 4.664062 -5.40625 4.960938 -5.15625 5.171875 -4.84375 C 5.359375 -4.5625 5.484375 -4.222656 5.546875 -3.828125 C 5.609375 -3.566406 5.640625 -3.144531 5.640625 -2.5625 L 1.421875 -2.5625 C 1.441406 -1.976562 1.578125 -1.507812 1.828125 -1.15625 C 2.085938 -0.8125 2.488281 -0.640625 3.03125 -0.640625 C 3.539062 -0.640625 3.945312 -0.804688 4.25 -1.140625 C 4.414062 -1.328125 4.535156 -1.550781 4.609375 -1.8125 L 5.5625 -1.8125 C 5.53125 -1.59375 5.441406 -1.351562 5.296875 -1.09375 C 5.160156 -0.832031 5.003906 -0.625 4.828125 -0.46875 C 4.535156 -0.175781 4.175781 0.0195312 3.75 0.125 C 3.507812 0.175781 3.242188 0.203125 2.953125 0.203125 C 2.234375 0.203125 1.625 -0.0546875 1.125 -0.578125 C 0.632812 -1.097656 0.390625 -1.828125 0.390625 -2.765625 C 0.390625 -3.691406 0.640625 -4.441406 1.140625 -5.015625 C 1.640625 -5.585938 2.296875 -5.875 3.109375 -5.875 Z M 4.640625 -3.328125 C 4.609375 -3.753906 4.519531 -4.09375 4.375 -4.34375 C 4.101562 -4.800781 3.660156 -5.03125 3.046875 -5.03125 C 2.597656 -5.03125 2.222656 -4.867188 1.921875 -4.546875 C 1.628906 -4.234375 1.472656 -3.828125 1.453125 -3.328125 Z M 3.015625 -5.890625 Z M 3.015625 -5.890625 "/>
</g>
<g id="glyph-1-8">
<path d="M 0.734375 -5.75 L 1.65625 -5.75 L 1.65625 -4.765625 C 1.726562 -4.953125 1.910156 -5.179688 2.203125 -5.453125 C 2.492188 -5.734375 2.832031 -5.875 3.21875 -5.875 C 3.238281 -5.875 3.269531 -5.875 3.3125 -5.875 C 3.351562 -5.875 3.425781 -5.867188 3.53125 -5.859375 L 3.53125 -4.828125 C 3.476562 -4.835938 3.425781 -4.84375 3.375 -4.84375 C 3.320312 -4.851562 3.269531 -4.859375 3.21875 -4.859375 C 2.726562 -4.859375 2.351562 -4.703125 2.09375 -4.390625 C 1.832031 -4.078125 1.703125 -3.71875 1.703125 -3.3125 L 1.703125 0 L 0.734375 0 Z M 0.734375 -5.75 "/>
</g>
<g id="glyph-1-9">
<path d="M 2.921875 -5.921875 C 3.578125 -5.921875 4.109375 -5.757812 4.515625 -5.4375 C 4.921875 -5.125 5.164062 -4.582031 5.25 -3.8125 L 4.296875 -3.8125 C 4.242188 -4.164062 4.113281 -4.457031 3.90625 -4.6875 C 3.707031 -4.925781 3.378906 -5.046875 2.921875 -5.046875 C 2.304688 -5.046875 1.867188 -4.75 1.609375 -4.15625 C 1.429688 -3.757812 1.34375 -3.273438 1.34375 -2.703125 C 1.34375 -2.128906 1.460938 -1.644531 1.703125 -1.25 C 1.953125 -0.851562 2.335938 -0.65625 2.859375 -0.65625 C 3.265625 -0.65625 3.582031 -0.773438 3.8125 -1.015625 C 4.050781 -1.265625 4.210938 -1.601562 4.296875 -2.03125 L 5.25 -2.03125 C 5.132812 -1.269531 4.863281 -0.710938 4.4375 -0.359375 C 4.007812 -0.00390625 3.457031 0.171875 2.78125 0.171875 C 2.03125 0.171875 1.429688 -0.101562 0.984375 -0.65625 C 0.535156 -1.207031 0.3125 -1.894531 0.3125 -2.71875 C 0.3125 -3.726562 0.554688 -4.515625 1.046875 -5.078125 C 1.535156 -5.640625 2.160156 -5.921875 2.921875 -5.921875 Z M 2.78125 -5.890625 Z M 2.78125 -5.890625 "/>
</g>
<g id="glyph-1-10">
<path d="M 1.453125 -1.53125 C 1.453125 -1.25 1.550781 -1.023438 1.75 -0.859375 C 1.957031 -0.703125 2.203125 -0.625 2.484375 -0.625 C 2.816406 -0.625 3.144531 -0.703125 3.46875 -0.859375 C 4.007812 -1.117188 4.28125 -1.550781 4.28125 -2.15625 L 4.28125 -2.921875 C 4.15625 -2.847656 4 -2.785156 3.8125 -2.734375 C 3.632812 -2.691406 3.453125 -2.65625 3.265625 -2.625 L 2.6875 -2.5625 C 2.332031 -2.507812 2.066406 -2.4375 1.890625 -2.34375 C 1.597656 -2.164062 1.453125 -1.894531 1.453125 -1.53125 Z M 3.796875 -3.484375 C 4.015625 -3.515625 4.160156 -3.609375 4.234375 -3.765625 C 4.273438 -3.847656 4.296875 -3.972656 4.296875 -4.140625 C 4.296875 -4.460938 4.175781 -4.695312 3.9375 -4.84375 C 3.707031 -5 3.375 -5.078125 2.9375 -5.078125 C 2.4375 -5.078125 2.082031 -4.941406 1.875 -4.671875 C 1.75 -4.515625 1.671875 -4.289062 1.640625 -4 L 0.734375 -4 C 0.753906 -4.707031 0.984375 -5.195312 1.421875 -5.46875 C 1.867188 -5.75 2.382812 -5.890625 2.96875 -5.890625 C 3.644531 -5.890625 4.191406 -5.757812 4.609375 -5.5 C 5.035156 -5.25 5.25 -4.847656 5.25 -4.296875 L 5.25 -0.984375 C 5.25 -0.890625 5.265625 -0.8125 5.296875 -0.75 C 5.335938 -0.6875 5.425781 -0.65625 5.5625 -0.65625 C 5.601562 -0.65625 5.648438 -0.65625 5.703125 -0.65625 C 5.765625 -0.664062 5.820312 -0.675781 5.875 -0.6875 L 5.875 0.03125 C 5.726562 0.0703125 5.613281 0.0976562 5.53125 0.109375 C 5.457031 0.117188 5.351562 0.125 5.21875 0.125 C 4.882812 0.125 4.640625 0.00390625 4.484375 -0.234375 C 4.410156 -0.359375 4.359375 -0.535156 4.328125 -0.765625 C 4.128906 -0.503906 3.84375 -0.28125 3.46875 -0.09375 C 3.101562 0.0898438 2.695312 0.1875 2.25 0.1875 C 1.71875 0.1875 1.28125 0.0234375 0.9375 -0.296875 C 0.601562 -0.617188 0.4375 -1.023438 0.4375 -1.515625 C 0.4375 -2.046875 0.601562 -2.457031 0.9375 -2.75 C 1.269531 -3.039062 1.707031 -3.222656 2.25 -3.296875 Z M 2.984375 -5.890625 Z M 2.984375 -5.890625 "/>
</g>
<g id="glyph-1-11">
<path d="M 0.90625 -7.359375 L 1.875 -7.359375 L 1.875 -5.75 L 2.796875 -5.75 L 2.796875 -4.96875 L 1.875 -4.96875 L 1.875 -1.203125 C 1.875 -1.003906 1.941406 -0.875 2.078125 -0.8125 C 2.160156 -0.769531 2.285156 -0.75 2.453125 -0.75 C 2.503906 -0.75 2.554688 -0.75 2.609375 -0.75 C 2.660156 -0.75 2.722656 -0.753906 2.796875 -0.765625 L 2.796875 0 C 2.679688 0.03125 2.5625 0.0507812 2.4375 0.0625 C 2.320312 0.0820312 2.195312 0.09375 2.0625 0.09375 C 1.613281 0.09375 1.304688 -0.0195312 1.140625 -0.25 C 0.984375 -0.488281 0.90625 -0.789062 0.90625 -1.15625 L 0.90625 -4.96875 L 0.125 -4.96875 L 0.125 -5.75 L 0.90625 -5.75 Z M 0.90625 -7.359375 "/>
</g>
<g id="glyph-2-0">
<path d="M 0 -0.359375 L -7.890625 -0.359375 L -7.890625 -6.625 L 0 -6.625 Z M -0.984375 -5.625 L -6.90625 -5.625 L -6.90625 -1.34375 L -0.984375 -1.34375 Z M -0.984375 -5.625 "/>
</g>
<g id="glyph-2-1">
<path d="M -2.8125 -1.328125 C -2.195312 -1.328125 -1.679688 -1.457031 -1.265625 -1.71875 C -0.847656 -1.976562 -0.640625 -2.394531 -0.640625 -2.96875 C -0.640625 -3.414062 -0.832031 -3.78125 -1.21875 -4.0625 C -1.601562 -4.351562 -2.15625 -4.5 -2.875 -4.5 C -3.601562 -4.5 -4.140625 -4.347656 -4.484375 -4.046875 C -4.835938 -3.753906 -5.015625 -3.390625 -5.015625 -2.953125 C -5.015625 -2.472656 -4.828125 -2.082031 -4.453125 -1.78125 C -4.078125 -1.476562 -3.53125 -1.328125 -2.8125 -1.328125 Z M -5.859375 -2.78125 C -5.859375 -3.21875 -5.765625 -3.585938 -5.578125 -3.890625 C -5.472656 -4.054688 -5.285156 -4.25 -5.015625 -4.46875 L -7.921875 -4.46875 L -7.921875 -5.390625 L 0 -5.390625 L 0 -4.53125 L -0.796875 -4.53125 C -0.441406 -4.300781 -0.1875 -4.03125 -0.03125 -3.71875 C 0.121094 -3.414062 0.203125 -3.066406 0.203125 -2.671875 C 0.203125 -2.023438 -0.0625 -1.46875 -0.59375 -1 C -1.132812 -0.53125 -1.851562 -0.296875 -2.75 -0.296875 C -3.59375 -0.296875 -4.320312 -0.507812 -4.9375 -0.9375 C -5.550781 -1.363281 -5.859375 -1.976562 -5.859375 -2.78125 Z M -5.859375 -2.78125 "/>
</g>
<g id="glyph-2-2">
<path d="M -5.875 -3.109375 C -5.875 -3.515625 -5.78125 -3.90625 -5.59375 -4.28125 C -5.40625 -4.664062 -5.15625 -4.960938 -4.84375 -5.171875 C -4.5625 -5.359375 -4.222656 -5.484375 -3.828125 -5.546875 C -3.566406 -5.609375 -3.144531 -5.640625 -2.5625 -5.640625 L -2.5625 -1.421875 C -1.976562 -1.441406 -1.507812 -1.578125 -1.15625 -1.828125 C -0.8125 -2.085938 -0.640625 -2.488281 -0.640625 -3.03125 C -0.640625 -3.539062 -0.804688 -3.945312 -1.140625 -4.25 C -1.328125 -4.414062 -1.550781 -4.535156 -1.8125 -4.609375 L -1.8125 -5.5625 C -1.59375 -5.53125 -1.351562 -5.441406 -1.09375 -5.296875 C -0.832031 -5.160156 -0.625 -5.003906 -0.46875 -4.828125 C -0.175781 -4.535156 0.0195312 -4.175781 0.125 -3.75 C 0.175781 -3.507812 0.203125 -3.242188 0.203125 -2.953125 C 0.203125 -2.234375 -0.0546875 -1.625 -0.578125 -1.125 C -1.097656 -0.632812 -1.828125 -0.390625 -2.765625 -0.390625 C -3.691406 -0.390625 -4.441406 -0.640625 -5.015625 -1.140625 C -5.585938 -1.640625 -5.875 -2.296875 -5.875 -3.109375 Z M -3.328125 -4.640625 C -3.753906 -4.609375 -4.09375 -4.519531 -4.34375 -4.375 C -4.800781 -4.101562 -5.03125 -3.660156 -5.03125 -3.046875 C -5.03125 -2.597656 -4.867188 -2.222656 -4.546875 -1.921875 C -4.234375 -1.628906 -3.828125 -1.472656 -3.328125 -1.453125 Z M -5.890625 -3.015625 Z M -5.890625 -3.015625 "/>
</g>
<g id="glyph-2-3">
<path d="M -5.75 -0.703125 L -5.75 -1.625 L -4.9375 -1.625 C -5.269531 -1.894531 -5.507812 -2.179688 -5.65625 -2.484375 C -5.800781 -2.796875 -5.875 -3.132812 -5.875 -3.5 C -5.875 -4.320312 -5.59375 -4.875 -5.03125 -5.15625 C -4.71875 -5.3125 -4.269531 -5.390625 -3.6875 -5.390625 L 0 -5.390625 L 0 -4.421875 L -3.625 -4.421875 C -3.976562 -4.421875 -4.257812 -4.367188 -4.46875 -4.265625 C -4.832031 -4.085938 -5.015625 -3.773438 -5.015625 -3.328125 C -5.015625 -3.097656 -4.988281 -2.910156 -4.9375 -2.765625 C -4.863281 -2.492188 -4.707031 -2.257812 -4.46875 -2.0625 C -4.28125 -1.90625 -4.082031 -1.800781 -3.875 -1.75 C -3.675781 -1.695312 -3.390625 -1.671875 -3.015625 -1.671875 L 0 -1.671875 L 0 -0.703125 Z M -5.890625 -2.984375 Z M -5.890625 -2.984375 "/>
</g>
<g id="glyph-2-4">
<path d="M -1.8125 -1.28125 C -1.488281 -1.3125 -1.238281 -1.394531 -1.0625 -1.53125 C -0.75 -1.769531 -0.59375 -2.191406 -0.59375 -2.796875 C -0.59375 -3.148438 -0.671875 -3.460938 -0.828125 -3.734375 C -0.984375 -4.003906 -1.222656 -4.140625 -1.546875 -4.140625 C -1.796875 -4.140625 -1.984375 -4.03125 -2.109375 -3.8125 C -2.191406 -3.675781 -2.285156 -3.398438 -2.390625 -2.984375 L -2.578125 -2.21875 C -2.703125 -1.726562 -2.835938 -1.367188 -2.984375 -1.140625 C -3.253906 -0.722656 -3.617188 -0.515625 -4.078125 -0.515625 C -4.617188 -0.515625 -5.054688 -0.707031 -5.390625 -1.09375 C -5.734375 -1.488281 -5.90625 -2.019531 -5.90625 -2.6875 C -5.90625 -3.550781 -5.648438 -4.175781 -5.140625 -4.5625 C -4.816406 -4.800781 -4.46875 -4.914062 -4.09375 -4.90625 L -4.09375 -4 C -4.3125 -3.976562 -4.507812 -3.898438 -4.6875 -3.765625 C -4.945312 -3.546875 -5.078125 -3.160156 -5.078125 -2.609375 C -5.078125 -2.242188 -5.003906 -1.96875 -4.859375 -1.78125 C -4.722656 -1.59375 -4.539062 -1.5 -4.3125 -1.5 C -4.0625 -1.5 -3.863281 -1.625 -3.71875 -1.875 C -3.625 -2.007812 -3.539062 -2.21875 -3.46875 -2.5 L -3.3125 -3.140625 C -3.144531 -3.835938 -2.984375 -4.300781 -2.828125 -4.53125 C -2.578125 -4.914062 -2.191406 -5.109375 -1.671875 -5.109375 C -1.148438 -5.109375 -0.703125 -4.910156 -0.328125 -4.515625 C 0.0351562 -4.128906 0.21875 -3.539062 0.21875 -2.75 C 0.21875 -1.894531 0.0234375 -1.285156 -0.359375 -0.921875 C -0.753906 -0.566406 -1.238281 -0.378906 -1.8125 -0.359375 Z M -5.890625 -2.71875 Z M -5.890625 -2.71875 "/>
</g>
<g id="glyph-2-5">
<path d="M -5.71875 -0.703125 L -5.71875 -1.6875 L 0 -1.6875 L 0 -0.703125 Z M -7.890625 -0.703125 L -7.890625 -1.6875 L -6.796875 -1.6875 L -6.796875 -0.703125 Z M -7.890625 -0.703125 "/>
</g>
<g id="glyph-2-6">
<path d="M -7.359375 -0.90625 L -7.359375 -1.875 L -5.75 -1.875 L -5.75 -2.796875 L -4.96875 -2.796875 L -4.96875 -1.875 L -1.203125 -1.875 C -1.003906 -1.875 -0.875 -1.941406 -0.8125 -2.078125 C -0.769531 -2.160156 -0.75 -2.285156 -0.75 -2.453125 C -0.75 -2.503906 -0.75 -2.554688 -0.75 -2.609375 C -0.75 -2.660156 -0.753906 -2.722656 -0.765625 -2.796875 L 0 -2.796875 C 0.03125 -2.679688 0.0507812 -2.5625 0.0625 -2.4375 C 0.0820312 -2.320312 0.09375 -2.195312 0.09375 -2.0625 C 0.09375 -1.613281 -0.0195312 -1.304688 -0.25 -1.140625 C -0.488281 -0.984375 -0.789062 -0.90625 -1.15625 -0.90625 L -4.96875 -0.90625 L -4.96875 -0.125 L -5.75 -0.125 L -5.75 -0.90625 Z M -7.359375 -0.90625 "/>
</g>
<g id="glyph-2-7">
<path d="M -5.75 -4.296875 L -5.75 -5.375 C -5.382812 -5.238281 -4.546875 -4.9375 -3.234375 -4.46875 C -2.242188 -4.113281 -1.4375 -3.816406 -0.8125 -3.578125 C 0.652344 -3.023438 1.550781 -2.632812 1.875 -2.40625 C 2.195312 -2.175781 2.359375 -1.78125 2.359375 -1.21875 C 2.359375 -1.082031 2.351562 -0.976562 2.34375 -0.90625 C 2.332031 -0.832031 2.3125 -0.742188 2.28125 -0.640625 L 1.40625 -0.640625 C 1.445312 -0.804688 1.472656 -0.925781 1.484375 -1 C 1.492188 -1.070312 1.5 -1.140625 1.5 -1.203125 C 1.5 -1.378906 1.46875 -1.507812 1.40625 -1.59375 C 1.351562 -1.675781 1.285156 -1.75 1.203125 -1.8125 C 1.171875 -1.820312 1.019531 -1.882812 0.75 -2 C 0.488281 -2.113281 0.296875 -2.191406 0.171875 -2.234375 L -5.75 -0.109375 L -5.75 -1.203125 L -1.0625 -2.75 Z M -5.890625 -2.75 Z M -5.890625 -2.75 "/>
</g>
</g>
<clipPath id="clip-0">
<path clip-rule="nonzero" d="M 54.152344 5.480469 L 390.523438 5.480469 L 390.523438 218.851562 L 54.152344 218.851562 Z M 54.152344 5.480469 "/>
</clipPath>
<clipPath id="clip-1">
<path clip-rule="nonzero" d="M 54.152344 180 L 390.523438 180 L 390.523438 182 L 54.152344 182 Z M 54.152344 180 "/>
</clipPath>
<clipPath id="clip-2">
<path clip-rule="nonzero" d="M 54.152344 124 L 390.523438 124 L 390.523438 125 L 54.152344 125 Z M 54.152344 124 "/>
</clipPath>
<clipPath id="clip-3">
<path clip-rule="nonzero" d="M 54.152344 67 L 390.523438 67 L 390.523438 69 L 54.152344 69 Z M 54.152344 67 "/>
</clipPath>
<clipPath id="clip-4">
<path clip-rule="nonzero" d="M 54.152344 11 L 390.523438 11 L 390.523438 12 L 54.152344 12 Z M 54.152344 11 "/>
</clipPath>
<clipPath id="clip-5">
<path clip-rule="nonzero" d="M 106 5.480469 L 108 5.480469 L 108 218.851562 L 106 218.851562 Z M 106 5.480469 "/>
</clipPath>
<clipPath id="clip-6">
<path clip-rule="nonzero" d="M 205 5.480469 L 207 5.480469 L 207 218.851562 L 205 218.851562 Z M 205 5.480469 "/>
</clipPath>
<clipPath id="clip-7">
<path clip-rule="nonzero" d="M 304 5.480469 L 305 5.480469 L 305 218.851562 L 304 218.851562 Z M 304 5.480469 "/>
</clipPath>
<clipPath id="clip-8">
<path clip-rule="nonzero" d="M 54.152344 208 L 390.523438 208 L 390.523438 210 L 54.152344 210 Z M 54.152344 208 "/>
</clipPath>
<clipPath id="clip-9">
<path clip-rule="nonzero" d="M 54.152344 152 L 390.523438 152 L 390.523438 154 L 54.152344 154 Z M 54.152344 152 "/>
</clipPath>
<clipPath id="clip-10">
<path clip-rule="nonzero" d="M 54.152344 95 L 390.523438 95 L 390.523438 97 L 54.152344 97 Z M 54.152344 95 "/>
</clipPath>
<clipPath id="clip-11">
<path clip-rule="nonzero" d="M 54.152344 39 L 390.523438 39 L 390.523438 41 L 54.152344 41 Z M 54.152344 39 "/>
</clipPath>
<clipPath id="clip-12">
<path clip-rule="nonzero" d="M 57 5.480469 L 59 5.480469 L 59 218.851562 L 57 218.851562 Z M 57 5.480469 "/>
</clipPath>
<clipPath id="clip-13">
<path clip-rule="nonzero" d="M 155 5.480469 L 158 5.480469 L 158 218.851562 L 155 218.851562 Z M 155 5.480469 "/>
</clipPath>
<clipPath id="clip-14">
<path clip-rule="nonzero" d="M 254 5.480469 L 256 5.480469 L 256 218.851562 L 254 218.851562 Z M 254 5.480469 "/>
</clipPath>
<clipPath id="clip-15">
<path clip-rule="nonzero" d="M 353 5.480469 L 355 5.480469 L 355 218.851562 L 353 218.851562 Z M 353 5.480469 "/>
</clipPath>
<clipPath id="clip-16">
<path clip-rule="nonzero" d="M 262 5.480469 L 264 5.480469 L 264 218.851562 L 262 218.851562 Z M 262 5.480469 "/>
</clipPath>
</defs>
<rect x="-39.6" y="-25.2" width="475.2" height="302.4" fill="rgb(100%, 100%, 100%)" fill-opacity="1"/>
<rect x="-39.6" y="-25.2" width="475.2" height="302.4" fill="rgb(100%, 100%, 100%)" fill-opacity="1"/>
<path fill="none" stroke-width="1.066978" stroke-linecap="round" stroke-linejoin="round" stroke="rgb(100%, 100%, 100%)" stroke-opacity="1" stroke-miterlimit="10" d="M 0 252 L 396 252 L 396 0 L 0 0 Z M 0 252 "/>
<g clip-path="url(#clip-0)">
<path fill-rule="nonzero" fill="rgb(92.156863%, 92.156863%, 92.156863%)" fill-opacity="1" d="M 54.152344 218.847656 L 390.523438 218.847656 L 390.523438 5.476562 L 54.152344 5.476562 Z M 54.152344 218.847656 "/>
</g>
<g clip-path="url(#clip-1)">
<path fill="none" stroke-width="0.533489" stroke-linecap="butt" stroke-linejoin="round" stroke="rgb(100%, 100%, 100%)" stroke-opacity="1" stroke-miterlimit="10" d="M 54.152344 180.917969 L 390.519531 180.917969 "/>
</g>
<g clip-path="url(#clip-2)">
<path fill="none" stroke-width="0.533489" stroke-linecap="butt" stroke-linejoin="round" stroke="rgb(100%, 100%, 100%)" stroke-opacity="1" stroke-miterlimit="10" d="M 54.152344 124.449219 L 390.519531 124.449219 "/>
</g>
<g clip-path="url(#clip-3)">
<path fill="none" stroke-width="0.533489" stroke-linecap="butt" stroke-linejoin="round" stroke="rgb(100%, 100%, 100%)" stroke-opacity="1" stroke-miterlimit="10" d="M 54.152344 67.984375 L 390.519531 67.984375 "/>
</g>
<g clip-path="url(#clip-4)">
<path fill="none" stroke-width="0.533489" stroke-linecap="butt" stroke-linejoin="round" stroke="rgb(100%, 100%, 100%)" stroke-opacity="1" stroke-miterlimit="10" d="M 54.152344 11.515625 L 390.519531 11.515625 "/>
</g>
<g clip-path="url(#clip-5)">
<path fill="none" stroke-width="0.533489" stroke-linecap="butt" stroke-linejoin="round" stroke="rgb(100%, 100%, 100%)" stroke-opacity="1" stroke-miterlimit="10" d="M 107.101562 218.847656 L 107.101562 5.480469 "/>
</g>
<g clip-path="url(#clip-6)">
<path fill="none" stroke-width="0.533489" stroke-linecap="butt" stroke-linejoin="round" stroke="rgb(100%, 100%, 100%)" stroke-opacity="1" stroke-miterlimit="10" d="M 205.832031 218.847656 L 205.832031 5.480469 "/>
</g>
<g clip-path="url(#clip-7)">
<path fill="none" stroke-width="0.533489" stroke-linecap="butt" stroke-linejoin="round" stroke="rgb(100%, 100%, 100%)" stroke-opacity="1" stroke-miterlimit="10" d="M 304.566406 218.847656 L 304.566406 5.480469 "/>
</g>
<g clip-path="url(#clip-8)">
<path fill="none" stroke-width="1.066978" stroke-linecap="butt" stroke-linejoin="round" stroke="rgb(100%, 100%, 100%)" stroke-opacity="1" stroke-miterlimit="10" d="M 54.152344 209.152344 L 390.519531 209.152344 "/>
</g>
<g clip-path="url(#clip-9)">
<path fill="none" stroke-width="1.066978" stroke-linecap="butt" stroke-linejoin="round" stroke="rgb(100%, 100%, 100%)" stroke-opacity="1" stroke-miterlimit="10" d="M 54.152344 152.683594 L 390.519531 152.683594 "/>
</g>
<g clip-path="url(#clip-10)">
<path fill="none" stroke-width="1.066978" stroke-linecap="butt" stroke-linejoin="round" stroke="rgb(100%, 100%, 100%)" stroke-opacity="1" stroke-miterlimit="10" d="M 54.152344 96.21875 L 390.519531 96.21875 "/>
</g>
<g clip-path="url(#clip-11)">
<path fill="none" stroke-width="1.066978" stroke-linecap="butt" stroke-linejoin="round" stroke="rgb(100%, 100%, 100%)" stroke-opacity="1" stroke-miterlimit="10" d="M 54.152344 39.75 L 390.519531 39.75 "/>
</g>
<g clip-path="url(#clip-12)">
<path fill="none" stroke-width="1.066978" stroke-linecap="butt" stroke-linejoin="round" stroke="rgb(100%, 100%, 100%)" stroke-opacity="1" stroke-miterlimit="10" d="M 57.734375 218.847656 L 57.734375 5.480469 "/>
</g>
<g clip-path="url(#clip-13)">
<path fill="none" stroke-width="1.066978" stroke-linecap="butt" stroke-linejoin="round" stroke="rgb(100%, 100%, 100%)" stroke-opacity="1" stroke-miterlimit="10" d="M 156.46875 218.847656 L 156.46875 5.480469 "/>
</g>
<g clip-path="url(#clip-14)">
<path fill="none" stroke-width="1.066978" stroke-linecap="butt" stroke-linejoin="round" stroke="rgb(100%, 100%, 100%)" stroke-opacity="1" stroke-miterlimit="10" d="M 255.199219 218.847656 L 255.199219 5.480469 "/>
</g>
<g clip-path="url(#clip-15)">
<path fill="none" stroke-width="1.066978" stroke-linecap="butt" stroke-linejoin="round" stroke="rgb(100%, 100%, 100%)" stroke-opacity="1" stroke-miterlimit="10" d="M 353.929688 218.847656 L 353.929688 5.480469 "/>
</g>
<path fill="none" stroke-width="1.066978" stroke-linecap="butt" stroke-linejoin="round" stroke="rgb(0%, 0%, 0%)" stroke-opacity="1" stroke-miterlimit="10" d="M 69.441406 204.648438 L 70.039062 204.6875 L 70.636719 204.804688 L 71.234375 204.992188 L 71.832031 205.238281 L 72.433594 205.535156 L 73.03125 205.863281 L 73.628906 206.214844 L 74.226562 206.574219 L 74.824219 206.929688 L 75.425781 207.269531 L 76.023438 207.582031 L 76.621094 207.867188 L 77.21875 208.117188 L 77.816406 208.332031 L 78.417969 208.515625 L 79.015625 208.664062 L 79.613281 208.785156 L 80.210938 208.882812 L 80.808594 208.957031 L 81.410156 209.011719 L 82.007812 209.054688 L 82.605469 209.082031 L 83.203125 209.105469 L 83.800781 209.121094 L 84.402344 209.132812 L 85 209.136719 L 85.597656 209.144531 L 86.195312 209.144531 L 86.792969 209.148438 L 89.1875 209.148438 L 89.785156 209.152344 L 147.234375 209.152344 L 147.832031 209.148438 L 150.226562 209.148438 L 151.421875 209.140625 L 152.023438 209.136719 L 153.21875 209.121094 L 153.816406 209.105469 L 154.414062 209.082031 L 155.015625 209.050781 L 155.613281 209.007812 L 156.210938 208.953125 L 156.808594 208.875 L 157.40625 208.777344 L 158.003906 208.65625 L 158.605469 208.503906 L 159.203125 208.324219 L 159.800781 208.105469 L 160.398438 207.855469 L 160.996094 207.566406 L 161.597656 207.25 L 162.195312 206.914062 L 162.792969 206.558594 L 163.390625 206.199219 L 163.988281 205.851562 L 164.589844 205.519531 L 165.1875 205.222656 L 165.785156 204.96875 L 166.382812 204.78125 L 166.980469 204.660156 L 167.582031 204.609375 L 168.179688 204.625 L 168.777344 204.707031 L 169.375 204.84375 L 169.972656 205.023438 L 170.574219 205.230469 L 171.171875 205.453125 L 171.769531 205.664062 L 172.367188 205.851562 L 172.964844 205.992188 L 173.566406 206.078125 L 174.164062 206.101562 L 174.761719 206.054688 L 175.359375 205.933594 L 175.957031 205.746094 L 176.558594 205.492188 L 177.15625 205.183594 L 177.753906 204.828125 L 178.351562 204.445312 L 178.949219 204.054688 L 179.550781 203.664062 L 180.148438 203.292969 L 180.746094 202.945312 L 181.34375 202.640625 L 181.941406 202.382812 L 182.539062 202.175781 L 183.140625 202.039062 L 183.738281 201.964844 L 184.335938 201.960938 L 184.933594 202.019531 L 185.53125 202.144531 L 186.132812 202.332031 L 186.730469 202.578125 L 187.328125 202.875 L 187.925781 203.21875 L 188.523438 203.597656 L 189.125 204.003906 L 190.320312 204.824219 L 190.917969 205.210938 L 191.515625 205.566406 L 192.117188 205.875 L 192.714844 206.125 L 193.3125 206.304688 L 193.910156 206.417969 L 194.507812 206.441406 L 195.109375 206.390625 L 195.707031 206.273438 L 196.304688 206.09375 L 196.902344 205.863281 L 197.5 205.601562 L 198.101562 205.316406 L 198.699219 205.027344 L 199.296875 204.746094 L 199.894531 204.484375 L 200.492188 204.261719 L 201.09375 204.074219 L 201.691406 203.925781 L 202.289062 203.820312 L 202.886719 203.746094 L 203.484375 203.699219 L 204.082031 203.671875 L 204.683594 203.65625 L 205.878906 203.632812 L 206.476562 203.617188 L 207.074219 203.59375 L 207.675781 203.570312 L 208.273438 203.542969 L 208.871094 203.523438 L 209.46875 203.507812 L 210.066406 203.503906 L 210.667969 203.507812 L 211.863281 203.53125 L 212.460938 203.527344 L 213.058594 203.5 L 213.660156 203.429688 L 214.257812 203.308594 L 214.855469 203.113281 L 215.453125 202.832031 L 216.050781 202.449219 L 216.652344 201.953125 L 217.25 201.316406 L 217.847656 200.546875 L 218.445312 199.628906 L 219.042969 198.5625 L 219.644531 197.335938 L 220.242188 195.945312 L 220.839844 194.382812 L 221.4375 192.640625 L 222.035156 190.714844 L 222.636719 188.578125 L 223.234375 186.234375 L 223.832031 183.679688 L 224.429688 180.914062 L 225.027344 177.933594 L 225.625 174.722656 L 226.226562 171.277344 L 226.824219 167.589844 L 227.421875 163.640625 L 228.019531 159.417969 L 228.617188 154.875 L 229.21875 150.042969 L 229.816406 144.917969 L 230.414062 139.511719 L 231.011719 133.84375 L 231.609375 127.949219 L 232.210938 121.867188 L 232.808594 115.660156 L 233.40625 109.382812 L 234.003906 103.125 L 234.601562 96.96875 L 235.203125 90.988281 L 235.800781 85.246094 L 236.398438 79.789062 L 236.996094 74.65625 L 237.59375 69.875 L 238.195312 65.453125 L 238.792969 61.386719 L 239.390625 57.671875 L 239.988281 54.3125 L 240.585938 51.238281 L 241.1875 48.425781 L 241.785156 45.851562 L 242.382812 43.488281 L 242.980469 41.3125 L 243.578125 39.316406 L 244.179688 37.472656 L 244.777344 35.777344 L 245.375 34.21875 L 245.972656 32.785156 L 246.570312 31.460938 L 247.167969 30.230469 L 247.769531 29.085938 L 248.367188 28.027344 L 248.964844 27.035156 L 249.5625 26.109375 L 250.160156 25.238281 L 250.761719 24.410156 L 251.359375 23.609375 L 251.957031 22.816406 L 252.554688 22.015625 L 253.152344 21.195312 L 253.753906 20.347656 L 254.351562 19.476562 L 254.949219 18.585938 L 255.546875 17.703125 L 256.144531 16.863281 L 256.746094 16.128906 L 257.34375 15.558594 L 257.941406 15.222656 L 258.539062 15.179688 L 259.136719 15.488281 L 259.738281 16.203125 L 260.335938 17.351562 L 260.933594 18.945312 L 261.53125 20.976562 L 262.128906 23.433594 L 262.730469 26.246094 L 263.328125 29.292969 L 263.925781 32.484375 L 264.523438 35.707031 L 265.121094 38.863281 L 265.722656 41.851562 L 266.320312 44.589844 L 266.917969 47.023438 L 267.515625 49.105469 L 268.113281 50.789062 L 268.710938 52.140625 L 269.3125 53.214844 L 269.910156 54.074219 L 270.507812 54.789062 L 271.105469 55.4375 L 271.703125 56.09375 L 272.304688 56.820312 L 272.902344 57.664062 L 273.5 58.671875 L 274.097656 59.875 L 274.695312 61.261719 L 275.296875 62.84375 L 275.894531 64.617188 L 276.492188 66.585938 L 277.089844 68.761719 L 277.6875 71.15625 L 278.289062 73.789062 L 278.886719 76.675781 L 279.484375 79.875 L 280.082031 83.347656 L 280.679688 87.085938 L 281.28125 91.0625 L 281.878906 95.226562 L 282.476562 99.523438 L 283.074219 103.875 L 283.671875 108.207031 L 284.273438 112.425781 L 284.871094 116.433594 L 285.46875 120.144531 L 286.066406 123.519531 L 286.664062 126.527344 L 287.265625 129.144531 L 287.863281 131.386719 L 288.460938 133.269531 L 289.058594 134.832031 L 289.65625 136.132812 L 290.257812 137.226562 L 290.855469 138.1875 L 291.453125 139.109375 L 292.050781 140.0625 L 292.648438 141.113281 L 293.246094 142.316406 L 293.847656 143.710938 L 294.445312 145.332031 L 295.042969 147.203125 L 295.640625 149.328125 L 296.238281 151.714844 L 296.839844 154.328125 L 297.4375 157.121094 L 298.035156 160.050781 L 298.632812 163.066406 L 299.230469 166.125 L 299.832031 169.171875 L 300.429688 172.160156 L 301.027344 175.054688 L 301.625 177.800781 L 302.222656 180.359375 L 302.824219 182.722656 L 303.421875 184.875 L 304.019531 186.808594 L 304.617188 188.523438 L 305.214844 190.015625 L 305.816406 191.292969 L 306.414062 192.363281 L 307.011719 193.226562 L 307.609375 193.875 L 308.207031 194.324219 L 308.808594 194.582031 L 309.40625 194.648438 L 310.003906 194.523438 L 310.601562 194.203125 L 311.199219 193.6875 L 311.800781 192.976562 L 312.398438 192.074219 L 312.996094 190.988281 L 313.59375 189.730469 L 314.191406 188.351562 L 314.789062 186.894531 L 315.390625 185.410156 L 315.988281 183.949219 L 316.585938 182.574219 L 317.183594 181.351562 L 317.78125 180.332031 L 318.382812 179.578125 L 318.980469 179.175781 L 319.578125 179.117188 L 320.175781 179.410156 L 320.773438 180.050781 L 321.375 181.011719 L 321.972656 182.261719 L 322.570312 183.75 L 323.167969 185.417969 L 323.765625 187.207031 L 324.367188 189.046875 L 324.964844 190.867188 L 325.5625 192.601562 L 326.160156 194.214844 L 326.757812 195.664062 L 327.359375 196.929688 L 327.957031 197.996094 L 328.554688 198.859375 L 329.152344 199.535156 L 329.75 200.027344 L 330.351562 200.351562 L 330.949219 200.554688 L 331.546875 200.671875 L 332.144531 200.726562 L 332.742188 200.753906 L 333.34375 200.773438 L 333.941406 200.808594 L 334.539062 200.878906 L 335.136719 200.996094 L 335.734375 201.167969 L 336.332031 201.394531 L 336.933594 201.667969 L 337.53125 201.980469 L 338.128906 202.3125 L 338.726562 202.648438 L 339.324219 202.976562 L 339.925781 203.265625 L 340.523438 203.503906 L 341.121094 203.667969 L 341.71875 203.730469 L 342.316406 203.691406 L 342.917969 203.542969 L 343.515625 203.289062 L 344.113281 202.929688 L 344.710938 202.476562 L 345.308594 201.945312 L 345.910156 201.351562 L 346.507812 200.726562 L 347.105469 200.089844 L 347.703125 199.476562 L 348.300781 198.910156 L 348.902344 198.417969 L 349.5 198.015625 L 350.097656 197.71875 L 350.695312 197.542969 L 351.292969 197.496094 L 351.894531 197.570312 L 352.492188 197.777344 L 353.089844 198.105469 L 353.6875 198.527344 L 354.285156 199.027344 L 354.886719 199.582031 L 355.484375 200.167969 L 356.082031 200.769531 L 356.679688 201.355469 L 357.277344 201.90625 L 357.875 202.410156 L 358.476562 202.839844 L 359.074219 203.191406 L 359.671875 203.46875 L 360.269531 203.667969 L 360.867188 203.804688 L 361.46875 203.882812 L 362.066406 203.921875 L 362.664062 203.929688 L 363.859375 203.921875 L 364.460938 203.933594 L 365.058594 203.964844 L 365.65625 204.015625 L 366.253906 204.085938 L 366.851562 204.171875 L 367.453125 204.265625 L 368.050781 204.351562 L 368.648438 204.429688 L 369.246094 204.484375 L 369.84375 204.511719 L 370.445312 204.507812 L 371.042969 204.480469 L 371.640625 204.429688 L 372.835938 204.3125 L 373.4375 204.265625 L 374.035156 204.246094 L 374.632812 204.261719 L 375.230469 204.332031 "/>
<g clip-path="url(#clip-16)">
<path fill="none" stroke-width="1.066978" stroke-linecap="butt" stroke-linejoin="round" stroke="rgb(0%, 0%, 0%)" stroke-opacity="1" stroke-dasharray="4.267913 4.267913" stroke-miterlimit="10" d="M 263.261719 218.847656 L 263.261719 5.480469 "/>
</g>
<g fill="rgb(30.196078%, 30.196078%, 30.196078%)" fill-opacity="1">
<use xlink:href="#glyph-0-1" x="44.21875" y="212.428711"/>
</g>
<g fill="rgb(30.196078%, 30.196078%, 30.196078%)" fill-opacity="1">
<use xlink:href="#glyph-0-2" x="24.21875" y="155.959961"/>
<use xlink:href="#glyph-0-1" x="29.21875" y="155.959961"/>
<use xlink:href="#glyph-0-1" x="34.21875" y="155.959961"/>
<use xlink:href="#glyph-0-1" x="39.21875" y="155.959961"/>
<use xlink:href="#glyph-0-1" x="44.21875" y="155.959961"/>
</g>
<g fill="rgb(30.196078%, 30.196078%, 30.196078%)" fill-opacity="1">
<use xlink:href="#glyph-0-3" x="19.21875" y="99.495117"/>
<use xlink:href="#glyph-0-1" x="24.21875" y="99.495117"/>
<use xlink:href="#glyph-0-1" x="29.21875" y="99.495117"/>
<use xlink:href="#glyph-0-1" x="34.21875" y="99.495117"/>
<use xlink:href="#glyph-0-1" x="39.21875" y="99.495117"/>
<use xlink:href="#glyph-0-1" x="44.21875" y="99.495117"/>
</g>
<g fill="rgb(30.196078%, 30.196078%, 30.196078%)" fill-opacity="1">
<use xlink:href="#glyph-0-3" x="19.21875" y="43.026367"/>
<use xlink:href="#glyph-0-2" x="24.21875" y="43.026367"/>
<use xlink:href="#glyph-0-1" x="29.21875" y="43.026367"/>
<use xlink:href="#glyph-0-1" x="34.21875" y="43.026367"/>
<use xlink:href="#glyph-0-1" x="39.21875" y="43.026367"/>
<use xlink:href="#glyph-0-1" x="44.21875" y="43.026367"/>
</g>
<path fill="none" stroke-width="1.066978" stroke-linecap="butt" stroke-linejoin="round" stroke="rgb(20%, 20%, 20%)" stroke-opacity="1" stroke-miterlimit="10" d="M 51.410156 209.152344 L 54.152344 209.152344 "/>
<path fill="none" stroke-width="1.066978" stroke-linecap="butt" stroke-linejoin="round" stroke="rgb(20%, 20%, 20%)" stroke-opacity="1" stroke-miterlimit="10" d="M 51.410156 152.683594 L 54.152344 152.683594 "/>
<path fill="none" stroke-width="1.066978" stroke-linecap="butt" stroke-linejoin="round" stroke="rgb(20%, 20%, 20%)" stroke-opacity="1" stroke-miterlimit="10" d="M 51.410156 96.21875 L 54.152344 96.21875 "/>
<path fill="none" stroke-width="1.066978" stroke-linecap="butt" stroke-linejoin="round" stroke="rgb(20%, 20%, 20%)" stroke-opacity="1" stroke-miterlimit="10" d="M 51.410156 39.75 L 54.152344 39.75 "/>
<path fill="none" stroke-width="1.066978" stroke-linecap="butt" stroke-linejoin="round" stroke="rgb(20%, 20%, 20%)" stroke-opacity="1" stroke-miterlimit="10" d="M 57.734375 221.589844 L 57.734375 218.847656 "/>
<path fill="none" stroke-width="1.066978" stroke-linecap="butt" stroke-linejoin="round" stroke="rgb(20%, 20%, 20%)" stroke-opacity="1" stroke-miterlimit="10" d="M 156.46875 221.589844 L 156.46875 218.847656 "/>
<path fill="none" stroke-width="1.066978" stroke-linecap="butt" stroke-linejoin="round" stroke="rgb(20%, 20%, 20%)" stroke-opacity="1" stroke-miterlimit="10" d="M 255.199219 221.589844 L 255.199219 218.847656 "/>
<path fill="none" stroke-width="1.066978" stroke-linecap="butt" stroke-linejoin="round" stroke="rgb(20%, 20%, 20%)" stroke-opacity="1" stroke-miterlimit="10" d="M 353.929688 221.589844 L 353.929688 218.847656 "/>
<g fill="rgb(30.196078%, 30.196078%, 30.196078%)" fill-opacity="1">
<use xlink:href="#glyph-0-4" x="44.734375" y="230.557617"/>
<use xlink:href="#glyph-0-5" x="47.734375" y="230.557617"/>
<use xlink:href="#glyph-0-6" x="52.734375" y="230.557617"/>
<use xlink:href="#glyph-0-4" x="57.734375" y="230.557617"/>
<use xlink:href="#glyph-0-1" x="60.734375" y="230.557617"/>
<use xlink:href="#glyph-0-2" x="65.734375" y="230.557617"/>
</g>
<g fill="rgb(30.196078%, 30.196078%, 30.196078%)" fill-opacity="1">
<use xlink:href="#glyph-0-4" x="143.46875" y="230.557617"/>
<use xlink:href="#glyph-0-3" x="146.46875" y="230.557617"/>
<use xlink:href="#glyph-0-6" x="151.46875" y="230.557617"/>
<use xlink:href="#glyph-0-4" x="156.46875" y="230.557617"/>
<use xlink:href="#glyph-0-1" x="159.46875" y="230.557617"/>
<use xlink:href="#glyph-0-2" x="164.46875" y="230.557617"/>
</g>
<g fill="rgb(30.196078%, 30.196078%, 30.196078%)" fill-opacity="1">
<use xlink:href="#glyph-0-1" x="242.699219" y="230.557617"/>
<use xlink:href="#glyph-0-6" x="247.699219" y="230.557617"/>
<use xlink:href="#glyph-0-7" x="252.699219" y="230.557617"/>
<use xlink:href="#glyph-0-1" x="257.699219" y="230.557617"/>
<use xlink:href="#glyph-0-1" x="262.699219" y="230.557617"/>
</g>
<g fill="rgb(30.196078%, 30.196078%, 30.196078%)" fill-opacity="1">
<use xlink:href="#glyph-0-3" x="342.429688" y="230.557617"/>
<use xlink:href="#glyph-0-6" x="347.429688" y="230.557617"/>
<use xlink:href="#glyph-0-4" x="352.429688" y="230.557617"/>
<use xlink:href="#glyph-0-1" x="355.429688" y="230.557617"/>
<use xlink:href="#glyph-0-2" x="360.429688" y="230.557617"/>
</g>
<g fill="rgb(0%, 0%, 0%)" fill-opacity="1">
<use xlink:href="#glyph-1-1" x="174.835938" y="242.990234"/>
<use xlink:href="#glyph-1-2" x="180.835938" y="242.990234"/>
<use xlink:href="#glyph-1-3" x="182.835938" y="242.990234"/>
<use xlink:href="#glyph-1-3" x="185.835938" y="242.990234"/>
<use xlink:href="#glyph-1-4" x="188.835938" y="242.990234"/>
<use xlink:href="#glyph-1-5" x="194.835938" y="242.990234"/>
<use xlink:href="#glyph-1-1" x="200.835938" y="242.990234"/>
<use xlink:href="#glyph-1-6" x="206.835938" y="242.990234"/>
<use xlink:href="#glyph-1-4" x="212.835938" y="242.990234"/>
<use xlink:href="#glyph-1-6" x="218.835938" y="242.990234"/>
<use xlink:href="#glyph-1-7" x="224.835938" y="242.990234"/>
<use xlink:href="#glyph-1-8" x="230.835938" y="242.990234"/>
<use xlink:href="#glyph-1-4" x="234.835938" y="242.990234"/>
<use xlink:href="#glyph-1-9" x="240.835938" y="242.990234"/>
<use xlink:href="#glyph-1-10" x="246.835938" y="242.990234"/>
<use xlink:href="#glyph-1-6" x="252.835938" y="242.990234"/>
<use xlink:href="#glyph-1-2" x="258.835938" y="242.990234"/>
<use xlink:href="#glyph-1-11" x="260.835938" y="242.990234"/>
<use xlink:href="#glyph-1-10" x="263.835938" y="242.990234"/>
</g>
<g fill="rgb(0%, 0%, 0%)" fill-opacity="1">
<use xlink:href="#glyph-2-1" x="12.951172" y="129.664062"/>
<use xlink:href="#glyph-2-2" x="12.951172" y="123.664062"/>
<use xlink:href="#glyph-2-3" x="12.951172" y="117.664062"/>
<use xlink:href="#glyph-2-4" x="12.951172" y="111.664062"/>
<use xlink:href="#glyph-2-5" x="12.951172" y="105.664062"/>
<use xlink:href="#glyph-2-6" x="12.951172" y="103.664062"/>
<use xlink:href="#glyph-2-7" x="12.951172" y="100.664062"/>
</g>
</svg>
